<svg xmlns="http://www.w3.org/2000/svg" xmlns:xlink="http://www.w3.org/1999/xlink" width="137.021" height="53.275" viewBox="0 0 137.021 53.275">
  <defs>
    <filter id="Path_41979" x="0" y="0" width="137.021" height="53.275" filterUnits="userSpaceOnUse">
      <feOffset dy="3" input="SourceAlpha"/>
      <feGaussianBlur stdDeviation="3" result="blur"/>
      <feFlood flood-opacity="0.161"/>
      <feComposite operator="in" in2="blur"/>
      <feComposite in="SourceGraphic"/>
    </filter>
  </defs>
  <g id="aivalable-on-the-app-store-2" transform="translate(9 6)">
    <path id="Path_41978" data-name="Path 41978" d="M118.782,31.661a3.378,3.378,0,0,1-3.382,3.378H4.722a3.383,3.383,0,0,1-3.386-3.378V4.718A3.387,3.387,0,0,1,4.722,1.335H115.4a3.382,3.382,0,0,1,3.382,3.383V31.661Z" transform="translate(-0.55 -0.55)" fill="#fff"/>
    <g transform="matrix(1, 0, 0, 1, -9, -6)" filter="url(#Path_41979)">
      <path id="Path_41979-2" data-name="Path 41979" d="M114.85,35.275H4.172A4.173,4.173,0,0,1,0,31.11V4.169A4.175,4.175,0,0,1,4.172,0H114.849a4.177,4.177,0,0,1,4.172,4.169V31.11a4.172,4.172,0,0,1-4.171,4.164Z" transform="translate(9 6)" fill="#a6a6a6"/>
    </g>
    <path id="Path_41980" data-name="Path 41980" d="M118.782,31.661a3.378,3.378,0,0,1-3.382,3.378H4.722a3.383,3.383,0,0,1-3.386-3.378V4.718A3.387,3.387,0,0,1,4.722,1.335H115.4a3.382,3.382,0,0,1,3.382,3.383V31.661Z" transform="translate(-0.55 -0.55)"/>
    <path id="Path_41981" data-name="Path 41981" d="M34.486,21.3a5.113,5.113,0,0,1,2.436-4.291,5.237,5.237,0,0,0-4.125-2.23c-1.735-.183-3.418,1.038-4.3,1.038-.9,0-2.263-1.021-3.73-.991a5.492,5.492,0,0,0-4.622,2.819c-2,3.461-.508,8.546,1.407,11.343.958,1.371,2.077,2.9,3.543,2.846,1.433-.058,1.969-.913,3.7-.913,1.714,0,2.217.913,3.711.879,1.538-.024,2.507-1.376,3.432-2.758a11.31,11.31,0,0,0,1.569-3.2A4.947,4.947,0,0,1,34.486,21.3Zm-2.823-8.361a5.033,5.033,0,0,0,1.152-3.607A5.127,5.127,0,0,0,29.5,11.043a4.79,4.79,0,0,0-1.182,3.474,4.235,4.235,0,0,0,3.345-1.582Z" transform="translate(-7.909 -3.844)" fill="#fff"/>
    <g id="Group_11089" data-name="Group 11089" transform="translate(37.428 15.877)">
      <path id="Path_41983" data-name="Path 41983" d="M73.573,38.919h-2l-1.1-3.448H66.658l-1.045,3.448h-1.95l3.78-11.739h2.334l3.8,11.739Zm-3.431-4.895-.992-3.065q-.157-.47-.592-2.211h-.035q-.175.749-.557,2.211l-.976,3.065Zm13.133.558A4.793,4.793,0,0,1,82.1,38a3.44,3.44,0,0,1-2.609,1.115,2.612,2.612,0,0,1-2.417-1.2v4.441H75.194V33.236q0-1.356-.07-2.782h1.654l.1,1.342h.035a3.346,3.346,0,0,1,5.355-.333A4.681,4.681,0,0,1,83.275,34.583Zm-1.916.069a3.49,3.49,0,0,0-.557-2.039,1.927,1.927,0,0,0-1.637-.835,1.956,1.956,0,0,0-1.262.461,2.139,2.139,0,0,0-.74,1.211,2.456,2.456,0,0,0-.087.573v1.412a2.265,2.265,0,0,0,.566,1.56,1.88,1.88,0,0,0,1.471.636,1.927,1.927,0,0,0,1.654-.819,3.6,3.6,0,0,0,.593-2.16Zm11.652-.069A4.794,4.794,0,0,1,91.837,38a3.442,3.442,0,0,1-2.61,1.115,2.612,2.612,0,0,1-2.417-1.2v4.441H84.929V33.236q0-1.356-.07-2.782h1.654l.1,1.342h.035a3.347,3.347,0,0,1,5.356-.333,4.685,4.685,0,0,1,1,3.119Zm-1.917.069a3.489,3.489,0,0,0-.558-2.039,1.924,1.924,0,0,0-1.635-.835,1.964,1.964,0,0,0-1.264.461A2.139,2.139,0,0,0,86.9,33.45a2.514,2.514,0,0,0-.088.573v1.412a2.273,2.273,0,0,0,.565,1.56,1.884,1.884,0,0,0,1.473.636,1.925,1.925,0,0,0,1.654-.819,3.6,3.6,0,0,0,.593-2.16Zm12.8.975a3.136,3.136,0,0,1-1.043,2.439,4.626,4.626,0,0,1-3.2,1.028,5.582,5.582,0,0,1-3.04-.731l.435-1.568a5.232,5.232,0,0,0,2.717.732,2.563,2.563,0,0,0,1.654-.479,1.565,1.565,0,0,0,.594-1.279,1.639,1.639,0,0,0-.489-1.2,4.531,4.531,0,0,0-1.619-.905q-3.083-1.15-3.084-3.363a2.969,2.969,0,0,1,1.089-2.368,4.3,4.3,0,0,1,2.883-.924,5.7,5.7,0,0,1,2.665.557l-.472,1.533a4.66,4.66,0,0,0-2.256-.54,2.294,2.294,0,0,0-1.556.488,1.4,1.4,0,0,0-.472,1.064,1.438,1.438,0,0,0,.541,1.149,6.094,6.094,0,0,0,1.706.905,5.784,5.784,0,0,1,2.229,1.427,2.974,2.974,0,0,1,.717,2.036Zm6.234-3.76h-2.073v4.11q0,1.568,1.1,1.567a3.308,3.308,0,0,0,.835-.087l.052,1.428a4.259,4.259,0,0,1-1.463.208,2.254,2.254,0,0,1-1.742-.68,3.335,3.335,0,0,1-.627-2.282V31.862h-1.235V30.451h1.235V28.9l1.847-.557v2.107h2.073Zm9.334,2.751a4.643,4.643,0,0,1-1.115,3.2,3.974,3.974,0,0,1-3.1,1.289,3.789,3.789,0,0,1-2.97-1.235,4.5,4.5,0,0,1-1.106-3.117,4.606,4.606,0,0,1,1.141-3.221,3.954,3.954,0,0,1,3.075-1.254,3.868,3.868,0,0,1,2.995,1.237,4.444,4.444,0,0,1,1.081,3.1Zm-1.949.043a3.79,3.79,0,0,0-.5-2,1.862,1.862,0,0,0-1.69-1.008,1.889,1.889,0,0,0-1.725,1.008,3.853,3.853,0,0,0-.5,2.032,3.779,3.779,0,0,0,.5,2,1.929,1.929,0,0,0,3.4-.017A3.8,3.8,0,0,0,117.515,34.66Zm8.065-2.552a3.266,3.266,0,0,0-.593-.052,1.775,1.775,0,0,0-1.533.75,2.824,2.824,0,0,0-.469,1.672v4.441H121.1v-5.8q0-1.462-.055-2.665h1.638l.069,1.619h.052a2.9,2.9,0,0,1,.94-1.342,2.274,2.274,0,0,1,1.359-.453,3.011,3.011,0,0,1,.47.034Zm8.412,2.178a4.411,4.411,0,0,1-.069.853H128.28a2.455,2.455,0,0,0,.819,1.918,2.8,2.8,0,0,0,1.845.591,6.24,6.24,0,0,0,2.283-.4l.295,1.3a7.058,7.058,0,0,1-2.838.523,4.114,4.114,0,0,1-3.093-1.157,4.279,4.279,0,0,1-1.123-3.109,4.849,4.849,0,0,1,1.046-3.186,3.6,3.6,0,0,1,2.96-1.358,3.154,3.154,0,0,1,2.771,1.358A4.568,4.568,0,0,1,133.991,34.286ZM132.2,33.8a2.546,2.546,0,0,0-.365-1.446,1.642,1.642,0,0,0-1.5-.785,1.783,1.783,0,0,0-1.5.767,2.809,2.809,0,0,0-.557,1.463Z" transform="translate(-63.663 -27.006)" fill="#fff"/>
    </g>
    <g id="Group_11090" data-name="Group 11090" transform="translate(38.129 5.781)">
      <path id="Path_41984" data-name="Path 41984" d="M69.726,15.9H68.74L68.2,14.207H66.327L65.813,15.9h-.959l1.858-5.77h1.147ZM68.039,13.5l-.488-1.507c-.051-.154-.146-.513-.291-1.087h-.018c-.06.248-.146.608-.274,1.087L66.489,13.5Zm6.332-1.755L72.8,15.9h-.9l-1.524-4.16h.993l.711,2.2c.12.368.222.719.3,1.052H72.4c.069-.3.171-.65.3-1.052l.7-2.2h.969Zm3.354,4.16-.069-.479H77.63A1.419,1.419,0,0,1,76.415,16a1.211,1.211,0,0,1-1.276-1.224c0-1.027.89-1.558,2.431-1.558v-.077c0-.548-.291-.822-.864-.822a1.942,1.942,0,0,0-1.087.309l-.188-.608a2.663,2.663,0,0,1,1.43-.36c1.087,0,1.635.573,1.635,1.721v1.532a6.179,6.179,0,0,0,.06.993h-.832ZM77.6,13.829c-1.028,0-1.541.249-1.541.839a.589.589,0,0,0,.633.65.885.885,0,0,0,.908-.847v-.642Zm2.96-2.773a.553.553,0,1,1,.582-.557A.543.543,0,0,1,80.555,11.056Zm.48,4.845h-.924v-4.16h.924Zm2.567,0h-.924V9.832H83.6V15.9Zm3.929,0-.069-.479h-.026A1.419,1.419,0,0,1,86.221,16a1.211,1.211,0,0,1-1.276-1.224c0-1.027.89-1.558,2.431-1.558v-.077c0-.548-.291-.822-.864-.822a1.943,1.943,0,0,0-1.087.309l-.189-.609a2.663,2.663,0,0,1,1.43-.36c1.087,0,1.635.573,1.635,1.721v1.532a6.409,6.409,0,0,0,.059.993h-.83ZM87.4,13.829c-1.028,0-1.541.249-1.541.839a.589.589,0,0,0,.633.65.885.885,0,0,0,.908-.847ZM92.048,16a1.412,1.412,0,0,1-1.308-.737h-.019l-.053.642H89.88c.026-.333.034-.711.034-1.121V9.832h.925V12.35h.018a1.427,1.427,0,0,1,1.327-.693c1,0,1.7.857,1.7,2.106A2,2,0,0,1,92.048,16Zm-.188-3.613a1.064,1.064,0,0,0-1.019,1.1v.728a1.019,1.019,0,0,0,1,1.044c.692,0,1.1-.565,1.1-1.463,0-.839-.43-1.413-1.089-1.413ZM96.18,15.9h-.924V9.832h.924Zm5.032-1.858H98.437a1.194,1.194,0,0,0,1.31,1.232,3.121,3.121,0,0,0,1.121-.2l.144.642a3.468,3.468,0,0,1-1.395.257,1.931,1.931,0,0,1-2.072-2.1,2.032,2.032,0,0,1,1.968-2.234,1.748,1.748,0,0,1,1.73,1.978A1.745,1.745,0,0,1,101.212,14.043Zm-.848-.659c0-.642-.326-1.1-.917-1.1a1.1,1.1,0,0,0-1.011,1.1h1.927ZM106.815,16a1.98,1.98,0,0,1-2-2.14,2.026,2.026,0,0,1,2.073-2.2,1.965,1.965,0,0,1,2,2.132A2.039,2.039,0,0,1,106.815,16Zm.035-3.664c-.668,0-1.1.625-1.1,1.5,0,.857.437,1.481,1.087,1.481s1.086-.668,1.086-1.5c0-.847-.427-1.48-1.077-1.48Zm7.007,3.57h-.924V13.512c0-.736-.282-1.1-.839-1.1a.961.961,0,0,0-.925,1.019V15.9h-.924V12.93c0-.368-.01-.762-.034-1.19h.813l.043.642h.026a1.493,1.493,0,0,1,1.318-.728c.872,0,1.446.668,1.446,1.755V15.9h0Zm6.049-3.467H118.89v2.02q0,.771.538.771a1.829,1.829,0,0,0,.411-.043l.026.7a2.059,2.059,0,0,1-.718.1c-.729,0-1.164-.4-1.164-1.455v-2.1h-.607v-.693h.607v-.762l.907-.274V11.74h1.017Zm4.9,3.467h-.925V13.53c0-.745-.282-1.121-.839-1.121a.905.905,0,0,0-.924.984V15.9h-.925V9.832h.925v2.5h.018a1.4,1.4,0,0,1,1.25-.677c.881,0,1.42.685,1.42,1.772Zm4.724-1.858h-2.774a1.193,1.193,0,0,0,1.309,1.232,3.117,3.117,0,0,0,1.121-.2l.145.642a3.473,3.473,0,0,1-1.4.257,1.931,1.931,0,0,1-2.072-2.1,2.032,2.032,0,0,1,1.968-2.234,1.748,1.748,0,0,1,1.73,1.978,1.8,1.8,0,0,1-.031.419Zm-.848-.659c0-.642-.325-1.1-.916-1.1a1.1,1.1,0,0,0-1.011,1.1Z" transform="translate(-64.854 -9.832)" fill="#fff"/>
    </g>
  </g>
</svg>
