<svg xmlns="http://www.w3.org/2000/svg" xmlns:xlink="http://www.w3.org/1999/xlink" width="26" height="26" viewBox="0 0 26 26">
  <defs>
    <clipPath id="clip-path">
      <rect id="Rectangle_5652" data-name="Rectangle 5652" width="26" height="26" transform="translate(734 425)" fill="#06bed8" stroke="#707070" stroke-width="1"/>
    </clipPath>
  </defs>
  <g id="Mask_Group_338" data-name="Mask Group 338" transform="translate(-734 -425)" clip-path="url(#clip-path)">
    <g id="Icon" transform="translate(734 425)">
      <path id="Path_42248" data-name="Path 42248" d="M22.349,23.256h2.419a3.325,3.325,0,0,0,3.326-3.326V5.419a3.324,3.324,0,0,0-3.326-3.326H5.419A3.324,3.324,0,0,0,2.093,5.419V19.93a3.325,3.325,0,0,0,3.326,3.326H7.837a.907.907,0,1,0,0-1.814H5.419A1.512,1.512,0,0,1,3.907,19.93V5.419A1.511,1.511,0,0,1,5.419,3.907H24.767a1.511,1.511,0,0,1,1.512,1.512V19.93a1.512,1.512,0,0,1-1.512,1.512H22.349a.907.907,0,0,0,0,1.814Z" transform="translate(-2.093 -2.093)" fill="#06bed8" fill-rule="evenodd"/>
      <path id="Path_42249" data-name="Path 42249" d="M24,16.814V12.581a2.116,2.116,0,0,0-2.116-2.116H13.419A2.116,2.116,0,0,0,11.3,12.581v4.233a.907.907,0,1,0,1.814,0V12.581a.3.3,0,0,1,.3-.3h8.465a.3.3,0,0,1,.3.3v4.233a.907.907,0,1,0,1.814,0Z" transform="translate(-4.651 -4.419)" fill="#06bed8" fill-rule="evenodd"/>
      <path id="Path_42250" data-name="Path 42250" d="M11.372,24H23.465a.907.907,0,1,0,0-1.814H11.372a.907.907,0,1,0,0,1.814Z" transform="translate(-4.419 -7.674)" fill="#06bed8" fill-rule="evenodd"/>
      <path id="Path_42251" data-name="Path 42251" d="M25.077,22.981l-1.209,9.674a.907.907,0,0,0,1.8.225l1.209-9.674a.907.907,0,0,0-1.8-.225Z" transform="translate(-8.14 -7.674)" fill="#06bed8" fill-rule="evenodd"/>
      <path id="Path_42252" data-name="Path 42252" d="M12.147,23.205l1.209,9.674a.907.907,0,0,0,1.8-.225l-1.209-9.674a.907.907,0,0,0-1.8.225Z" transform="translate(-4.884 -7.674)" fill="#06bed8" fill-rule="evenodd"/>
      <path id="Path_42253" data-name="Path 42253" d="M22.349,28.047H13.884a.907.907,0,0,0,0,1.814h8.465a.907.907,0,0,0,0-1.814Z" transform="translate(-5.116 -9.302)" fill="#06bed8" fill-rule="evenodd"/>
      <path id="Path_42254" data-name="Path 42254" d="M21.977,33.907H14.721a.907.907,0,0,0,0,1.814h7.256a.907.907,0,1,0,0-1.814Z" transform="translate(-5.349 -10.93)" fill="#06bed8" fill-rule="evenodd"/>
      <path id="Path_42255" data-name="Path 42255" d="M18.837,23.093v9.674a.907.907,0,0,0,1.814,0V23.093a.907.907,0,0,0-1.814,0Z" transform="translate(-6.744 -7.674)" fill="#06bed8" fill-rule="evenodd"/>
    </g>
  </g>
</svg>
