<svg xmlns="http://www.w3.org/2000/svg" xmlns:xlink="http://www.w3.org/1999/xlink" width="148" height="148" viewBox="0 0 148 148">
  <defs>
    <clipPath id="clip-path">
      <rect id="Rectangle_1530" data-name="Rectangle 1530" width="67" height="67" transform="translate(0 -0.495)" fill="#fff" stroke="#707070" stroke-width="1"/>
    </clipPath>
  </defs>
  <g id="Group_11276" data-name="Group 11276" transform="translate(-102 -1038)">
    <g id="Ellipse_45" data-name="Ellipse 45" transform="translate(102 1038)" fill="rgba(6,190,216,0.05)" stroke="#06bed8" stroke-width="1">
      <circle cx="74" cy="74" r="74" stroke="none"/>
      <circle cx="74" cy="74" r="73.5" fill="none"/>
    </g>
    <g id="Mask_Group_328" data-name="Mask Group 328" transform="translate(142 1078.496)" clip-path="url(#clip-path)">
      <g id="location_2_" data-name="location (2)" transform="translate(1.297)">
        <path id="Path_42118" data-name="Path 42118" d="M63.287,58.726H2.613a1.618,1.618,0,0,1-1.539-2.114l9.646-29.9a1.617,1.617,0,0,1,1.539-1.121H53.641a1.617,1.617,0,0,1,1.539,1.121l9.646,29.9A1.618,1.618,0,0,1,63.287,58.726Z" transform="translate(-0.994 7.779)" fill="#dfeaef"/>
        <path id="Path_42119" data-name="Path 42119" d="M53.911,56.611l-9.646-29.9a1.617,1.617,0,0,0-1.539-1.121H36.9L47.588,58.726h4.784A1.618,1.618,0,0,0,53.911,56.611Z" transform="translate(9.921 7.779)" fill="#bfcfd6"/>
        <ellipse id="Ellipse_44" data-name="Ellipse 44" cx="5.462" cy="3.647" rx="5.462" ry="3.647" transform="translate(26.494 43.322)" fill="#171717"/>
        <path id="Path_42120" data-name="Path 42120" d="M29.63,0A17.714,17.714,0,0,0,11.916,17.714c0,12.59,14.317,26.625,17.209,29.332a.739.739,0,0,0,1.011,0C33.027,44.339,47.344,30.3,47.344,17.714A17.714,17.714,0,0,0,29.63,0Zm0,26.045a9.353,9.353,0,1,1,9.353-9.353A9.353,9.353,0,0,1,29.63,26.045Z" transform="translate(2.326)" fill="#06bed8"/>
        <path id="Path_42121" data-name="Path 42121" d="M25.651.011l-.261.01-.213.012-.208.013-.241.019-.173.015L24.29.109l-.141.016-.288.036-.107.015-.313.047-.068.011q-.173.028-.345.059a17.719,17.719,0,0,1,14.49,17.42c0,8.2-6.072,20.622-11.106,29.512a.735.735,0,0,0,.344-.18L26.8,47l.064-.06.1-.09.072-.069.113-.108.069-.066.15-.144.053-.051.218-.211.044-.043.188-.184.087-.086.16-.158.1-.1.161-.161.111-.111.164-.165.12-.121.17-.173.126-.128.178-.183.127-.131.195-.2.121-.126.243-.255.083-.087.336-.357.08-.086.263-.284.128-.14.224-.245.144-.159.216-.239.154-.171.214-.24.157-.177.22-.25.156-.178.23-.265.152-.176.246-.288.14-.164.3-.356.089-.106q.194-.233.39-.472l.107-.131.286-.351.148-.184.247-.309.162-.205.234-.3.167-.216.23-.3.168-.221.231-.306L36,36.691l.236-.32.158-.215c.084-.115.167-.231.251-.347l.141-.2q.158-.221.314-.444l.074-.105q.193-.276.383-.556l.111-.164q.135-.2.268-.4l.143-.218q.116-.177.231-.354l.152-.237q.109-.171.218-.342l.154-.246q.106-.17.21-.34l.152-.25q.1-.172.207-.346l.146-.248q.1-.179.207-.359l.137-.239q.11-.2.218-.391l.117-.211q.141-.259.279-.52l.046-.086q.16-.3.314-.61c.031-.062.062-.125.093-.187.071-.142.141-.284.21-.427.038-.079.075-.158.112-.236.06-.127.121-.254.179-.382.039-.085.078-.171.116-.256q.083-.183.164-.367c.039-.088.076-.176.114-.264q.078-.182.154-.364.055-.132.109-.265.074-.184.146-.369c.034-.087.068-.174.1-.261.048-.127.095-.254.141-.381.03-.083.061-.166.091-.249.049-.139.1-.278.143-.417.024-.072.049-.143.073-.215q.094-.287.182-.575l.018-.057q.1-.316.182-.632c.018-.067.035-.134.053-.2.038-.144.076-.288.112-.433.02-.082.039-.164.058-.246.03-.13.061-.259.089-.389.019-.087.036-.174.054-.261.025-.125.05-.25.074-.375.017-.089.032-.178.048-.267q.032-.185.06-.369c.014-.089.027-.179.04-.268.017-.124.033-.248.048-.372.011-.087.021-.175.031-.262.014-.128.025-.257.036-.385.007-.082.015-.165.021-.247.01-.141.017-.281.024-.422,0-.069.008-.139.011-.208q.012-.314.012-.627A17.714,17.714,0,0,0,26.252,0c-.145,0-.29,0-.434.005Z" transform="translate(5.704)" fill="#0aaac1"/>
        <path id="Path_42122" data-name="Path 42122" d="M30.9,38.841c-.264,0-.523-.013-.776-.037,0,.012,0,.025,0,.037V43.1H11.661a1.061,1.061,0,0,0-1.025.787L7.742,54.73h2.2l2.539-9.511H31.182a1.061,1.061,0,0,0,1.061-1.061V38.841a1.072,1.072,0,0,0-.006-.111A8.077,8.077,0,0,1,30.9,38.841Z" transform="translate(1.057 11.775)" fill="#06bed8"/>
      </g>
    </g>
  </g>
</svg>
