<svg xmlns="http://www.w3.org/2000/svg" xmlns:xlink="http://www.w3.org/1999/xlink" width="148" height="148" viewBox="0 0 148 148">
  <defs>
    <clipPath id="clip-path">
      <rect id="Rectangle_1531" data-name="Rectangle 1531" width="67" height="67" transform="translate(-0.222 -0.495)" fill="#fff" stroke="#707070" stroke-width="1"/>
    </clipPath>
  </defs>
  <g id="Group_11277" data-name="Group 11277" transform="translate(-658 -1038)">
    <g id="Ellipse_46" data-name="Ellipse 46" transform="translate(658 1038)" fill="rgba(6,190,216,0.05)" stroke="#06bed8" stroke-width="1">
      <circle cx="74" cy="74" r="74" stroke="none"/>
      <circle cx="74" cy="74" r="73.5" fill="none"/>
    </g>
    <g id="Mask_Group_327" data-name="Mask Group 327" transform="translate(699.222 1079.496)" clip-path="url(#clip-path)">
      <g id="like" transform="translate(3.54)">
        <path id="Path_42111" data-name="Path 42111" d="M57.451,40.4a3.908,3.908,0,0,0-3.9-3.9,3.9,3.9,0,1,0,0-7.794H37.578c2.377-7.131,2.338-9.534,2.338-13.9a5.826,5.826,0,0,0-3.9-5.494,5.4,5.4,0,0,0-1.948-.351H32.9a2.015,2.015,0,0,0-1.871,1.481L29.94,14.693c-1.637,6.352-6.9,14.015-13.4,14.015V55.986l8.69,2.884a19.425,19.425,0,0,0,6.157,1.013H49.658a3.9,3.9,0,1,0,0-7.794h3.9a3.9,3.9,0,0,0,0-7.794A3.908,3.908,0,0,0,57.451,40.4Z" transform="translate(1 2.725)" fill="#fedbab"/>
        <path id="Path_42112" data-name="Path 42112" d="M45.569,59.883a3.9,3.9,0,1,0,0-7.794h3.9a3.9,3.9,0,0,0,0-7.794,3.9,3.9,0,1,0,0-7.794,3.9,3.9,0,0,0,0-7.794H33.49c2.377-7.131,2.338-9.534,2.338-13.9a5.826,5.826,0,0,0-3.9-5.494,5.4,5.4,0,0,0-1.948-.351V59.883Z" transform="translate(5.088 2.725)" fill="#fec478"/>
        <g id="Group_11274" data-name="Group 11274">
          <path id="Path_42113" data-name="Path 42113" d="M16.727,60.085H5.036a1.947,1.947,0,0,1-1.948-1.948V23.066a1.947,1.947,0,0,1,1.948-1.948h11.69a5.852,5.852,0,0,1,5.845,5.845V54.24A5.852,5.852,0,0,1,16.727,60.085Z" transform="translate(-3.088 6.42)" fill="#06bed8"/>
          <circle id="Ellipse_43" data-name="Ellipse 43" cx="1.948" cy="1.948" r="1.948" transform="translate(7.794 54.814)" fill="#0290a4"/>
          <path id="Path_42114" data-name="Path 42114" d="M32.385,1.948v3.9a1.948,1.948,0,1,1-3.9,0v-3.9a1.948,1.948,0,1,1,3.9,0Z" transform="translate(4.634)" fill="#06bed8"/>
          <path id="Path_42115" data-name="Path 42115" d="M22.305,10.019,19.55,7.264a1.948,1.948,0,1,1,2.755-2.755L25.06,7.264a1.948,1.948,0,1,1-2.755,2.755Z" transform="translate(1.743 1.197)" fill="#06bed8"/>
        </g>
        <g id="Group_11275" data-name="Group 11275" transform="translate(35.071)">
          <path id="Path_42116" data-name="Path 42116" d="M36.455,10.019a1.948,1.948,0,0,1,0-2.755L39.21,4.509a1.948,1.948,0,1,1,2.755,2.755L39.21,10.019A1.948,1.948,0,0,1,36.455,10.019Z" transform="translate(-28.188 1.197)" fill="#06bed8"/>
          <path id="Path_42117" data-name="Path 42117" d="M31.931,1.948v3.9a1.929,1.929,0,0,1-1.948,1.948V0A1.929,1.929,0,0,1,31.931,1.948Z" transform="translate(-29.982)" fill="#06bed8"/>
        </g>
      </g>
    </g>
  </g>
</svg>
