<svg xmlns="http://www.w3.org/2000/svg" xmlns:xlink="http://www.w3.org/1999/xlink" width="148" height="148" viewBox="0 0 148 148">
  <defs>
    <clipPath id="clip-path">
      <rect id="Rectangle_1532" data-name="Rectangle 1532" width="66" height="67" transform="translate(0.468 -0.495)" fill="#fff" stroke="#707070" stroke-width="1"/>
    </clipPath>
  </defs>
  <g id="Group_11278" data-name="Group 11278" transform="translate(-1333 -1038)">
    <g id="Ellipse_47" data-name="Ellipse 47" transform="translate(1333 1038)" fill="rgba(6,190,216,0.05)" stroke="#06bed8" stroke-width="1">
      <circle cx="74" cy="74" r="74" stroke="none"/>
      <circle cx="74" cy="74" r="73.5" fill="none"/>
    </g>
    <g id="Mask_Group_326" data-name="Mask Group 326" transform="translate(1373.532 1079.496)" clip-path="url(#clip-path)">
      <g id="customer-service_1_" data-name="customer-service (1)" transform="translate(0 0)">
        <g id="Group_11266" data-name="Group 11266" transform="translate(0.494 0)">
          <g id="Group_11265" data-name="Group 11265">
            <path id="Path_42095" data-name="Path 42095" d="M.379,10.476a10.476,10.476,0,1,1,17.362,7.9.455.455,0,0,0,.067.735l1.974,1.168a.364.364,0,0,1-.186.678l-8.939,0A10.476,10.476,0,0,1,.379,10.476Z" transform="translate(-0.379 0)" fill="#06bed8"/>
          </g>
        </g>
        <path id="Path_42096" data-name="Path 42096" d="M17.8,20.274l-1.974-1.168a.454.454,0,0,1-.07-.732A10.476,10.476,0,0,0,9.189,0a10.558,10.558,0,0,0-2.3.184A10.517,10.517,0,0,1,15.4,10.409,10.43,10.43,0,0,1,13.2,16.9a2.262,2.262,0,0,0,.611,3.347l.041.024a.364.364,0,0,1-.174.677h3.943a.364.364,0,0,0,.186-.678Z" transform="translate(2.094 0)" fill="#171717" opacity="0.06"/>
        <g id="Group_11271" data-name="Group 11271" transform="translate(15.282 0)">
          <g id="Group_11268" data-name="Group 11268" transform="translate(0 0)">
            <path id="Path_42097" data-name="Path 42097" d="M46.7,38.027H22.936a7.009,7.009,0,0,1-5.393-11.485l.211-.254a11.21,11.21,0,0,0,2.584-7.16V14.545a14.545,14.545,0,0,1,29.089,0v4.738A11.21,11.21,0,0,0,52.063,26.5,7.009,7.009,0,0,1,46.7,38.027Z" transform="translate(-10.444 0)" fill="#c59191"/>
            <path id="Path_42098" data-name="Path 42098" d="M60.47,42.532V58.243H11.719V42.65a8.773,8.773,0,0,1,5.368-8.086l7.87-3.421,2.65-1.152a5.506,5.506,0,0,0,3.311-5.05V23.923H41.27v.965a5.507,5.507,0,0,0,3.338,5.061l10.645,4.563a8.771,8.771,0,0,1,5.218,8.02Z" transform="translate(-11.719 7.273)" fill="#fff"/>
            <path id="Path_42099" data-name="Path 42099" d="M21.991,34.889a37.737,37.737,0,0,0,11.459,1.574A37.729,37.729,0,0,0,44.266,34.68l1.283-3.056-3.908-1.675A5.506,5.506,0,0,1,38.3,24.888v-.964H27.953V24.94a5.507,5.507,0,0,1-3.311,5.05l-3.165,1.376Z" transform="translate(-8.753 7.273)" fill="#ffcebf"/>
            <g id="Group_11267" data-name="Group 11267" transform="translate(0 38.348)">
              <path id="Path_42100" data-name="Path 42100" d="M46.972,32.844l-8.018-3.437h0V56.576H52.191V40.864a8.772,8.772,0,0,0-5.218-8.02Z" transform="translate(-3.44 -29.407)" fill="#06bed8"/>
              <path id="Path_42101" data-name="Path 42101" d="M24.958,29.459v27.1H11.719V40.967a8.773,8.773,0,0,1,5.368-8.086Z" transform="translate(-11.719 -29.391)" fill="#06bed8"/>
            </g>
          </g>
          <g id="Group_11270" data-name="Group 11270" transform="translate(9.895)">
            <path id="Path_42102" data-name="Path 42102" d="M35.319,29.6a8.706,8.706,0,0,0,3.36-.671,5.506,5.506,0,0,1-1.773-4.046v-.964H26.555V24.94a5.5,5.5,0,0,1-.482,2.251A8.7,8.7,0,0,0,32.1,29.6h3.222Z" transform="translate(-17.25 7.273)" fill="#ffb09e"/>
            <path id="Path_42103" data-name="Path 42103" d="M43.169,13.307V21.87a8.735,8.735,0,0,1-8.735,8.735H31.213a8.735,8.735,0,0,1-8.735-8.735V13.307a5.682,5.682,0,0,1,5.683-5.683h9.326a5.683,5.683,0,0,1,5.682,5.683Z" transform="translate(-18.343 2.318)" fill="#ffcebf"/>
            <path id="Path_42104" data-name="Path 42104" d="M39.991,15.4c0,.012-.009.023-.012.035a9.217,9.217,0,0,1-3.147,4.695,8.8,8.8,0,0,1-3.161,1.545.989.989,0,1,0,.5,1.913,10.772,10.772,0,0,0,3.867-1.891,10.589,10.589,0,0,0,1.946-1.958c0-.077.006-.153.006-.23V15.4Z" transform="translate(-15.165 4.682)" fill="#7a6d79"/>
            <path id="Path_42105" data-name="Path 42105" d="M33.652,23.2H31.335a1.91,1.91,0,1,1,0-3.819h2.317a1.91,1.91,0,0,1,0,3.819Z" transform="translate(-16.231 5.891)" fill="#685e68"/>
            <g id="Group_11269" data-name="Group 11269">
              <path id="Path_42106" data-name="Path 42106" d="M32,7.2c.222-2.8,2.9-4.655,5.464-5.616a14.536,14.536,0,0,1,7.08,12.485v1c-.234.049-.468.092-.7.127a11.776,11.776,0,0,1-3.437,0C35.112,14.486,31.73,10.575,32,7.2Z" transform="translate(-15.453 0.48)" fill="#b98080"/>
              <path id="Path_42107" data-name="Path 42107" d="M33.851,0A14.479,14.479,0,0,1,42.6,2.926a25.943,25.943,0,0,1-9.234,9.386,25.739,25.739,0,0,1-9.8,3.36H19.307V14.544A14.544,14.544,0,0,1,33.851,0Z" transform="translate(-19.307)" fill="#c59191"/>
            </g>
          </g>
        </g>
        <path id="Path_42108" data-name="Path 42108" d="M50.717,54.59H19.068L17.322,38.123a1.977,1.977,0,0,1,1.966-2.186H50.5a1.977,1.977,0,0,1,1.966,2.186Z" transform="translate(5.263 10.926)" fill="#efedef"/>
        <path id="Path_42109" data-name="Path 42109" d="M43.682,35.938H39.727a1.977,1.977,0,0,1,1.966,2.186L39.947,54.591H43.9l1.746-16.467A1.977,1.977,0,0,0,43.682,35.938Z" transform="translate(12.078 10.926)" fill="#e5e1e5"/>
        <g id="Group_11272" data-name="Group 11272" transform="translate(0 64.556)">
          <path id="Path_42110" data-name="Path 42110" d="M65.531,51.454H.974a.974.974,0,1,1,0-1.948H65.531a.974.974,0,0,1,0,1.948Z" transform="translate(0 -49.506)" fill="#c9bfc8"/>
        </g>
        <circle id="Ellipse_39" data-name="Ellipse 39" cx="2.768" cy="2.768" r="2.768" transform="translate(37.387 53.421)" fill="#c9bfc8"/>
        <g id="Group_11273" data-name="Group 11273" transform="translate(6.027 9.488)">
          <circle id="Ellipse_40" data-name="Ellipse 40" cx="0.989" cy="0.989" r="0.989" fill="#fff"/>
          <circle id="Ellipse_41" data-name="Ellipse 41" cx="0.989" cy="0.989" r="0.989" transform="translate(3.955)" fill="#fff"/>
          <circle id="Ellipse_42" data-name="Ellipse 42" cx="0.989" cy="0.989" r="0.989" transform="translate(7.909)" fill="#fff"/>
        </g>
      </g>
    </g>
  </g>
</svg>
