<svg id="instagram_4_" data-name="instagram (4)" xmlns="http://www.w3.org/2000/svg" width="33.862" height="33.862" viewBox="0 0 33.862 33.862">
  <path id="Path_23019" data-name="Path 23019" d="M213.482,210.241A3.241,3.241,0,1,1,210.241,207,3.241,3.241,0,0,1,213.482,210.241Zm0,0" transform="translate(-193.31 -193.31)" fill="#171717"/>
  <path id="Path_23020" data-name="Path 23020" d="M151.034,137.725a3.22,3.22,0,0,0-1.845-1.845,5.381,5.381,0,0,0-1.8-.334c-1.025-.047-1.333-.056-3.929-.056s-2.9.01-3.929.056a5.381,5.381,0,0,0-1.8.335,3.221,3.221,0,0,0-1.845,1.845,5.381,5.381,0,0,0-.334,1.806c-.047,1.025-.056,1.333-.056,3.929s.01,2.9.056,3.929a5.381,5.381,0,0,0,.334,1.8,3.22,3.22,0,0,0,1.845,1.845,5.372,5.372,0,0,0,1.806.335c1.025.047,1.332.056,3.928.056s2.9-.01,3.929-.056a5.371,5.371,0,0,0,1.806-.335,3.22,3.22,0,0,0,1.845-1.845,5.381,5.381,0,0,0,.335-1.8c.047-1.025.056-1.333.056-3.929s-.01-2.9-.056-3.929a5.372,5.372,0,0,0-.336-1.807Zm-7.579,10.726a4.993,4.993,0,1,1,4.993-4.993,4.993,4.993,0,0,1-4.993,4.993Zm5.189-9.015a1.169,1.169,0,1,1,.824-.341,1.167,1.167,0,0,1-.824.341Zm0,0" transform="translate(-126.525 -126.528)" fill="#171717"/>
  <path id="Path_23021" data-name="Path 23021" d="M16.931,0A16.931,16.931,0,1,0,33.862,16.931,16.931,16.931,0,0,0,16.931,0Zm9.663,20.939a7.133,7.133,0,0,1-.452,2.36A4.972,4.972,0,0,1,23.3,26.142a7.138,7.138,0,0,1-2.36.452c-1.036.048-1.368.058-4.008.058s-2.972-.011-4.008-.058a7.138,7.138,0,0,1-2.36-.452A4.971,4.971,0,0,1,7.721,23.3a7.131,7.131,0,0,1-.452-2.36c-.048-1.037-.059-1.368-.059-4.008s.011-2.972.058-4.008a7.134,7.134,0,0,1,.452-2.36A4.974,4.974,0,0,1,10.564,7.72a7.14,7.14,0,0,1,2.36-.452c1.036-.048,1.368-.058,4.008-.058s2.972.011,4.008.059a7.145,7.145,0,0,1,2.36.452,4.972,4.972,0,0,1,2.843,2.844,7.132,7.132,0,0,1,.453,2.36c.048,1.036.058,1.368.058,4.008S26.64,19.9,26.595,20.939Zm0,0" transform="translate(0)" fill="#171717"/>
</svg>
