<svg xmlns="http://www.w3.org/2000/svg" xmlns:xlink="http://www.w3.org/1999/xlink" width="25" height="25" viewBox="0 0 25 25">
  <defs>
    <clipPath id="clip-path">
      <rect id="Rectangle_5661" data-name="Rectangle 5661" width="25" height="25" transform="translate(142 781)" fill="#171717" stroke="#707070" stroke-width="1"/>
    </clipPath>
  </defs>
  <g id="Mask_Group_361" data-name="Mask Group 361" transform="translate(-142 -781)" clip-path="url(#clip-path)">
    <g id="language" transform="translate(142 781)">
      <g id="Group_11581" data-name="Group 11581">
        <g id="Group_11580" data-name="Group 11580">
          <path id="Path_53814" data-name="Path 53814" d="M9.556,13.089,8.091,5.765a.732.732,0,0,0-.718-.589H5.908a.732.732,0,0,0-.718.589L3.725,13.089a.732.732,0,0,0,1.436.287l.468-2.341H7.652l.468,2.341a.732.732,0,1,0,1.436-.287ZM5.923,9.57l.586-2.93h.264l.586,2.93Z" fill="#171717"/>
        </g>
      </g>
      <g id="Group_11583" data-name="Group 11583">
        <g id="Group_11582" data-name="Group 11582">
          <path id="Path_53815" data-name="Path 53815" d="M21.289,11.035h-2.2V10.3a.732.732,0,0,0-1.465,0v.732h-2.2a.732.732,0,0,0,0,1.465h.177a9.163,9.163,0,0,0,1.737,3.212c-.563.515-1.132.937-1.639,1.343A.732.732,0,1,0,16.62,18.2c.51-.408,1.121-.862,1.74-1.429.619.568,1.231,1.022,1.74,1.429a.732.732,0,1,0,.915-1.144c-.506-.4-1.076-.827-1.639-1.343A9.163,9.163,0,0,0,21.112,12.5h.177a.732.732,0,0,0,0-1.465Zm-2.93,3.6A7.716,7.716,0,0,1,17.154,12.5h2.41A7.714,7.714,0,0,1,18.359,14.636Z" fill="#171717"/>
        </g>
      </g>
      <g id="Group_11585" data-name="Group 11585">
        <g id="Group_11584" data-name="Group 11584">
          <path id="Path_53816" data-name="Path 53816" d="M22.8,4.443H12.236l-.314-2.519A2.2,2.2,0,0,0,9.742,0H2.2A2.2,2.2,0,0,0,0,2.2V18.359a2.2,2.2,0,0,0,2.2,2.2H8.373l.31,2.519A2.2,2.2,0,0,0,10.863,25H22.8A2.2,2.2,0,0,0,25,22.8V6.641A2.2,2.2,0,0,0,22.8,4.443ZM2.2,19.092a.733.733,0,0,1-.732-.732V2.2A.733.733,0,0,1,2.2,1.465H9.742a.733.733,0,0,1,.727.641l2.117,16.986Zm7.9,3.455-.245-1.99h1.965Zm13.441.256a.733.733,0,0,1-.732.732H11.175l2.788-3.225a.731.731,0,0,0,.177-.587L12.419,5.908H22.8a.733.733,0,0,1,.732.732Z" fill="#171717"/>
        </g>
      </g>
    </g>
  </g>
</svg>
