<svg xmlns="http://www.w3.org/2000/svg" xmlns:xlink="http://www.w3.org/1999/xlink" width="48" height="48" viewBox="0 0 48 48">
  <defs>
    <clipPath id="clip-path">
      <rect id="Rectangle_1509" data-name="Rectangle 1509" width="48" height="48" transform="translate(1076 2029)" fill="#fff"/>
    </clipPath>
  </defs>
  <g id="Mask_Group_311" data-name="Mask Group 311" transform="translate(-1076 -2029)" clip-path="url(#clip-path)">
    <g id="massage" transform="translate(1076 2029)">
      <g id="Group_11143" data-name="Group 11143">
        <path id="Path_42023" data-name="Path 42023" d="M10.386,48H37.614l-.23-3.643a6.2,6.2,0,0,0-4.7-5.633l-3.957-.978a.436.436,0,0,1-.332-.424V28.465H19.565v8.867a.437.437,0,0,1-.332.424l-3.912.967a6.2,6.2,0,0,0-4.7,5.633Z" fill="#f9c295"/>
        <path id="Path_42024" data-name="Path 42024" d="M37.385,44.357a6.2,6.2,0,0,0-4.7-5.633l-3.957-.978a.436.436,0,0,1-.332-.424V28.465H25.746v8.856a.436.436,0,0,0,.332.424l3.957.978a6.2,6.2,0,0,1,4.7,5.633L34.97,48h2.645Z" fill="#e8a26a"/>
        <path id="Path_42025" data-name="Path 42025" d="M19.565,35.814A9.954,9.954,0,0,0,24,36.991a9.93,9.93,0,0,0,4.39-1.154V28.465H19.565Z" fill="#e8a26a"/>
        <path id="Path_42026" data-name="Path 42026" d="M24,8.5h0a10.485,10.485,0,0,1,10.358,8.823,38.038,38.038,0,0,1,.36,6.955A11.482,11.482,0,0,1,24,34.592,11.482,11.482,0,0,1,13.282,24.278a38.039,38.039,0,0,1,.36-6.955A10.485,10.485,0,0,1,24,8.5Z" fill="#f9c295"/>
        <path id="Path_42027" data-name="Path 42027" d="M34.358,17.322A10.485,10.485,0,0,0,24,8.5h0c-.223,0-.444.01-.665.023,4.294.306,7.88,3.934,8.566,8.8a43,43,0,0,1,.318,6.955c-.542,6.35-5.314,9.923-8.884,10.284.226.02.448.031.665.031A11.482,11.482,0,0,0,34.718,24.277,38.047,38.047,0,0,0,34.358,17.322Z" fill="#e8a26a"/>
        <path id="Path_42028" data-name="Path 42028" d="M28.154,5.14s7.76-.481,7.828,8.755c2.51,1.449,1.317,6.232.462,8.1a.72.72,0,0,1-.508.405l-1.174.246C33.853,19.079,31.931,13.387,24,11.77,26.637,5.823,28.154,5.14,28.154,5.14Z" fill="#d8e6f0"/>
        <path id="Path_42029" data-name="Path 42029" d="M32.682,6.439a8.033,8.033,0,0,0-4.527-1.3S26.637,5.823,24,11.77a15.2,15.2,0,0,1,4.25,1.5c2.358-1.728,4.329-3.815,4.459-6.04A4.4,4.4,0,0,0,32.682,6.439Z" fill="#aac0d1"/>
        <path id="Path_42030" data-name="Path 42030" d="M13.282,24.278c0-3.06,2.787-6.572,6.152-8.152S30.39,10.655,30.649,6.215,23.992-4.308,15.318,4.494c-6.763,6.863-4.795,16.548-4.22,18.917C11.262,24.091,13.282,25.337,13.282,24.278Z" fill="#d8e6f0"/>
        <path id="Path_42031" data-name="Path 42031" d="M35.848,12.015,35.4,11.7a.7.7,0,1,0-.81,1.15l1.385.976A14.091,14.091,0,0,0,35.848,12.015Z" fill="#aac0d1"/>
        <path id="Path_42032" data-name="Path 42032" d="M30.148,3.807a6.491,6.491,0,0,0-1.431-1.967,6.828,6.828,0,0,0-2.3.047,10.217,10.217,0,0,0-4.729,2.5.7.7,0,1,0,.92,1.064,8.869,8.869,0,0,1,4.076-2.18,4.931,4.931,0,0,1,3.458.538Z" fill="#aac0d1"/>
      </g>
      <g id="Group_11145" data-name="Group 11145">
        <path id="Path_42033" data-name="Path 42033" d="M39.76,11.76v8.9H37.388c-.872,0-3.145,1.7-4.539,2.808a1.413,1.413,0,0,0-.18,2.04h0a1.413,1.413,0,0,0,1.645.352l3.868-1.758a.509.509,0,0,1,.716.4,22.192,22.192,0,0,1,.183,2.7c0,1.744-4.047,5.176-5.892,6.389-1.443.949-.641,3.289,3.058,2.037S45.32,31.572,45.32,26.2V11.348" fill="#f9c295"/>
        <path id="Path_42034" data-name="Path 42034" d="M43.143,11.509V26.2c0,5.368-5.373,8.177-9.072,9.429-.242.082-.47.147-.687.2a4.341,4.341,0,0,0,2.864-.2c3.7-1.252,9.072-4.061,9.072-9.429V11.348Z" fill="#e8a26a"/>
        <path id="Path_42035" data-name="Path 42035" d="M8.24,11.76v8.9h2.372c.872,0,3.145,1.7,4.539,2.808a1.413,1.413,0,0,1,.18,2.04h0a1.413,1.413,0,0,1-1.645.352L9.817,24.107a.509.509,0,0,0-.716.4,22.192,22.192,0,0,0-.183,2.7c0,1.744,4.047,5.176,5.892,6.389,1.443.949.641,3.289-3.058,2.037S2.68,31.572,2.68,26.2V11.348" fill="#f9c295"/>
        <g id="Group_11144" data-name="Group 11144">
          <path id="Path_42036" data-name="Path 42036" d="M13.566,25.513a1.41,1.41,0,0,1-.218.2l.337.153a1.413,1.413,0,0,0,1.465-2.392c-1.394-1.111-3.667-2.808-4.539-2.808H8.848c.872,0,3.145,1.7,4.539,2.808A1.413,1.413,0,0,1,13.566,25.513Z" fill="#e8a26a"/>
          <path id="Path_42037" data-name="Path 42037" d="M14.81,33.6c-1.845-1.213-5.892-4.645-5.892-6.389a22.062,22.062,0,0,1,.174-2.628l-1.038-.472a.509.509,0,0,0-.716.4,22.191,22.191,0,0,0-.183,2.7c0,1.744,4.047,5.176,5.892,6.389a1.215,1.215,0,0,1-.359,2.292C15.577,36.47,16.121,34.458,14.81,33.6Z" fill="#e8a26a"/>
          <path id="Path_42038" data-name="Path 42038" d="M6.476,11.629v9.035H8.24v-8.9Z" fill="#e8a26a"/>
        </g>
      </g>
    </g>
  </g>
</svg>
