<svg xmlns="http://www.w3.org/2000/svg" xmlns:xlink="http://www.w3.org/1999/xlink" width="22" height="22" viewBox="0 0 22 22">
  <defs>
    <clipPath id="clip-path">
      <rect id="Rectangle_1519" data-name="Rectangle 1519" width="22" height="22" transform="translate(518 5426)" fill="#06bed8" stroke="#707070" stroke-width="1"/>
    </clipPath>
  </defs>
  <g id="Mask_Group_315" data-name="Mask Group 315" transform="translate(-518 -5426)" clip-path="url(#clip-path)">
    <path id="quality_1_" data-name="quality (1)" d="M10.258,11.659,9.056,10.5a.645.645,0,1,0-.894.928l1.657,1.6a.643.643,0,0,0,.9-.008l3.125-3.125a.645.645,0,1,0-.912-.912l-2.677,2.678ZM11.044,0a1.485,1.485,0,0,1,1.009.434l1.32,1.321a.181.181,0,0,0,.193.052l1.8-.483a1.489,1.489,0,0,1,1.823,1.052l.483,1.8a.181.181,0,0,0,.141.141l1.805.483a1.491,1.491,0,0,1,1.052,1.823l-.484,1.8a.184.184,0,0,0,.052.193l1.321,1.321a1.489,1.489,0,0,1,0,2.1l-1.321,1.321a.184.184,0,0,0-.052.193l.484,1.8a1.491,1.491,0,0,1-1.052,1.823l-1.805.483a.181.181,0,0,0-.141.141l-.483,1.8a1.489,1.489,0,0,1-1.823,1.052l-1.8-.483a.181.181,0,0,0-.193.052l-1.32,1.321a1.491,1.491,0,0,1-2.106,0L8.626,20.243a.181.181,0,0,0-.192-.052l-1.8.483a1.489,1.489,0,0,1-1.823-1.052l-.483-1.8a.181.181,0,0,0-.141-.141l-1.8-.483A1.491,1.491,0,0,1,1.324,15.37l.484-1.8a.181.181,0,0,0-.052-.193L.435,12.052a1.489,1.489,0,0,1,0-2.1L1.756,8.626a.182.182,0,0,0,.052-.193l-.484-1.8A1.491,1.491,0,0,1,2.377,4.805l1.8-.483a.181.181,0,0,0,.141-.141l.483-1.8A1.49,1.49,0,0,1,6.629,1.324l1.8.483a.18.18,0,0,0,.192-.052L9.947.434A1.485,1.485,0,0,1,10.956,0ZM11,15.794a4.8,4.8,0,1,1,4.8-4.8A4.8,4.8,0,0,1,11,15.794Z" transform="translate(518 5426)" fill="#06bed8" fill-rule="evenodd"/>
  </g>
</svg>
