<svg xmlns="http://www.w3.org/2000/svg" xmlns:xlink="http://www.w3.org/1999/xlink" width="48" height="48" viewBox="0 0 48 48">
  <defs>
    <clipPath id="clip-path">
      <rect id="Rectangle_5648" data-name="Rectangle 5648" width="48" height="48" transform="translate(238 8381)" fill="#fff" stroke="#707070" stroke-width="1"/>
    </clipPath>
  </defs>
  <g id="Mask_Group_334" data-name="Mask Group 334" transform="translate(-238 -8381)" clip-path="url(#clip-path)">
    <g id="place" transform="translate(238 8381)">
      <path id="Path_42147" data-name="Path 42147" d="M48,24a23.974,23.974,0,1,1-1.062-7.082A23.977,23.977,0,0,1,48,24Z" fill="#55d485"/>
      <ellipse id="Ellipse_51" data-name="Ellipse 51" cx="6.198" cy="2.553" rx="6.198" ry="2.553" transform="translate(29.769 23.811)" fill="#10995b"/>
      <path id="Path_42148" data-name="Path 42148" d="M44.824,29.835a2.493,2.493,0,0,1-.65,1.287,3.9,3.9,0,0,1-1.189.8,12.124,12.124,0,0,1-3.1.844c-1.1.18-2.213.289-3.325.375s-2.241.157-3.362.213c-2.239.112-4.479.19-6.717.316a64.367,64.367,0,0,0-6.616.628,15.816,15.816,0,0,0-3.106.756,3.431,3.431,0,0,0-1.291.732.377.377,0,0,0-.12.406,2.066,2.066,0,0,0,.281.591,7,7,0,0,0,1.014,1.2c.106.1.213.206.322.306a.472.472,0,0,0,.17.1,5.426,5.426,0,0,0,1.443.329c.534.068,1.072.108,1.609.139.951.054,1.9.071,2.856.1a49.783,49.783,0,0,1,6.407.476,13.289,13.289,0,0,1,5.782,2.148A8.007,8.007,0,0,1,37.321,43.8l.045.074c.028.046.027.026,0,.064a.674.674,0,0,1-.148.1q-.171.113-.344.223-.323.206-.653.4-.661.392-1.347.741-.7.358-1.43.67-.348.149-.7.287c-.045.018-.146.075-.175.049s-.059-.13-.082-.172a2.446,2.446,0,0,0-.2-.312,5.4,5.4,0,0,0-2.439-1.6,18.3,18.3,0,0,0-3.093-.854c-1.086-.214-2.18-.374-3.278-.513-1.079-.137-2.159-.262-3.237-.407a22.043,22.043,0,0,1-3.145-.592,5.392,5.392,0,0,1-2.342-1.229c-.158-.155-.3-.327-.448-.495a11.922,11.922,0,0,1-.957-1.257,5.235,5.235,0,0,1-.966-2.7A3.343,3.343,0,0,1,13.674,33.6,7.118,7.118,0,0,1,16.5,32.359a22.886,22.886,0,0,1,3.189-.5c2.2-.209,4.423-.243,6.634-.264,2.242-.021,4.483-.011,6.725-.048a52.4,52.4,0,0,0,6.637-.409,15.261,15.261,0,0,0,1.6-.308,5.212,5.212,0,0,0,1.428-.543,1.273,1.273,0,0,0,.483-.451,1.09,1.09,0,0,0,.117-.634c-.064-.459-.512-.773-.885-.983a6.344,6.344,0,0,0-1.414-.557,2.813,2.813,0,0,0-.6-.137,1.265,1.265,0,0,1,.05-.241q.056-.261.112-.522t.112-.511a1.836,1.836,0,0,1,.055-.237,2.582,2.582,0,0,0,.472.122,9.1,9.1,0,0,1,1.365.454,3.9,3.9,0,0,1,2.024,1.664A2.412,2.412,0,0,1,44.824,29.835Z" fill="#10995b"/>
      <path id="Path_42149" data-name="Path 42149" d="M46.938,16.918H1.062a24.009,24.009,0,0,1,45.876,0Z" fill="#bce6f5"/>
      <g id="Group_11325" data-name="Group 11325">
        <path id="Path_42150" data-name="Path 42150" d="M23.051,30.472l-8.9,15.42a24.034,24.034,0,0,1-4.567-2.7L2.24,30.472A11.98,11.98,0,0,1,4,16.112a11.849,11.849,0,0,1,8.647-3.663A12.015,12.015,0,0,1,23.051,30.472Z" fill="#06bed8"/>
        <path id="Path_42151" data-name="Path 42151" d="M18.9,24.464a6.257,6.257,0,1,1-4.782-6.082A6.262,6.262,0,0,1,18.9,24.464Z" fill="#bce6f5"/>
        <path id="Path_42152" data-name="Path 42152" d="M18.9,24.464a6.262,6.262,0,0,1-4.782,6.083,6.26,6.26,0,0,1,0-12.166A6.261,6.261,0,0,1,18.9,24.464Z" fill="#fff"/>
      </g>
      <g id="Group_11326" data-name="Group 11326">
        <path id="Path_42153" data-name="Path 42153" d="M35.967,26.364l7.611-13.182A8.788,8.788,0,0,0,35.967,0h0a8.788,8.788,0,0,0-7.611,13.182Z" fill="#06bed8"/>
        <path id="Path_42154" data-name="Path 42154" d="M40.545,8.788a4.576,4.576,0,1,1-3.5-4.449A4.58,4.58,0,0,1,40.545,8.788Z" fill="#bce6f5"/>
        <path id="Path_42155" data-name="Path 42155" d="M40.545,8.788a4.58,4.58,0,0,1-3.5,4.45,4.579,4.579,0,0,1,0-8.9A4.58,4.58,0,0,1,40.545,8.788Z" fill="#fff"/>
      </g>
    </g>
  </g>
</svg>
