<svg xmlns="http://www.w3.org/2000/svg" xmlns:xlink="http://www.w3.org/1999/xlink" width="48" height="48" viewBox="0 0 48 48">
  <defs>
    <clipPath id="clip-path">
      <rect id="Rectangle_1511" data-name="Rectangle 1511" width="48" height="48" transform="translate(1146 5753)" fill="#06bed8"/>
    </clipPath>
  </defs>
  <g id="Mask_Group_330" data-name="Mask Group 330" transform="translate(-1146 -5753)" clip-path="url(#clip-path)">
    <g id="online-meeting" transform="translate(1146 5753)">
      <circle id="Ellipse_48" data-name="Ellipse 48" cx="0.938" cy="0.938" r="0.938" transform="translate(18.262 29.217)" fill="#06bed8"/>
      <circle id="Ellipse_49" data-name="Ellipse 49" cx="0.938" cy="0.938" r="0.938" transform="translate(23.062 29.217)" fill="#06bed8"/>
      <circle id="Ellipse_50" data-name="Ellipse 50" cx="0.938" cy="0.938" r="0.938" transform="translate(27.862 29.217)" fill="#06bed8"/>
      <path id="Path_42129" data-name="Path 42129" d="M9.007,31.093a6.317,6.317,0,1,1,6.317-6.317,6.317,6.317,0,0,1-6.317,6.317Zm0-10.76a4.442,4.442,0,1,0,4.442,4.442,4.442,4.442,0,0,0-4.442-4.442Z" fill="#06bed8"/>
      <path id="Path_42130" data-name="Path 42130" d="M17.077,42.39H.937A.937.937,0,0,1,0,41.453V38.225a9.007,9.007,0,1,1,18.014,0v3.228A.937.937,0,0,1,17.077,42.39Zm-15.2-1.875H16.139v-2.29a7.132,7.132,0,1,0-14.265,0Z" fill="#06bed8"/>
      <path id="Path_42131" data-name="Path 42131" d="M38.993,31.093a6.317,6.317,0,1,1,6.317-6.317,6.317,6.317,0,0,1-6.317,6.317Zm0-10.76a4.442,4.442,0,1,0,4.442,4.442,4.442,4.442,0,0,0-4.442-4.442Z" fill="#06bed8"/>
      <path id="Path_42132" data-name="Path 42132" d="M47.062,42.39H30.923a.937.937,0,0,1-.937-.937V38.225a9.007,9.007,0,1,1,18.014,0v3.228A.937.937,0,0,1,47.062,42.39Zm-15.2-1.875H46.125v-2.29a7.132,7.132,0,1,0-14.265,0Z" fill="#06bed8"/>
      <path id="Path_42133" data-name="Path 42133" d="M19.727,24.56a.937.937,0,0,1-.937-.937v-2.77h-.937A3.059,3.059,0,0,1,14.8,17.8V8.665a3.059,3.059,0,0,1,3.056-3.056h12.1a3.059,3.059,0,0,1,3.056,3.056V17.8a3.059,3.059,0,0,1-3.056,3.056H23.823L20.39,24.285a.936.936,0,0,1-.663.275ZM17.852,7.485A1.181,1.181,0,0,0,16.67,8.666V17.8a1.181,1.181,0,0,0,1.181,1.181h1.875a.937.937,0,0,1,.937.937V21.36l2.107-2.107a.936.936,0,0,1,.663-.275h6.517A1.181,1.181,0,0,0,31.133,17.8V8.665a1.181,1.181,0,0,0-1.181-1.181Z" fill="#06bed8"/>
    </g>
  </g>
</svg>
