<svg xmlns="http://www.w3.org/2000/svg" xmlns:xlink="http://www.w3.org/1999/xlink" width="48" height="48" viewBox="0 0 48 48">
  <defs>
    <clipPath id="clip-path">
      <rect id="Rectangle_5645" data-name="Rectangle 5645" width="48" height="48" transform="translate(238 7956)" fill="#fff" stroke="#707070" stroke-width="1"/>
    </clipPath>
  </defs>
  <g id="Mask_Group_337" data-name="Mask Group 337" transform="translate(-238 -7956)" clip-path="url(#clip-path)">
    <g id="price-tag_3_" data-name="price-tag (3)" transform="translate(238 7956)">
      <path id="Path_42247" data-name="Path 42247" d="M24,0A24,24,0,1,1,0,24,24,24,0,0,1,24,0Z" transform="translate(0.005 0.002)" fill="#06bed8"/>
      <path id="Path_42236" data-name="Path 42236" d="M1.854,16.655q-.45.26-.872.549A23.987,23.987,0,0,0,7.431,41.357,23.9,23.9,0,0,0,18.042,37.5,13.32,13.32,0,0,0,1.854,16.655Z" fill="#f8a748"/>
      <path id="Path_42237" data-name="Path 42237" d="M16.008,38.239A13.666,13.666,0,0,1,6.181,15.077a13.26,13.26,0,0,0-4.327,1.579q-.45.26-.872.549A23.987,23.987,0,0,0,7.431,41.357a23.89,23.89,0,0,0,9.477-3.149C16.61,38.228,16.311,38.239,16.008,38.239Z" fill="#f38d1a"/>
      <path id="Path_42238" data-name="Path 42238" d="M8.514,17.429a10.745,10.745,0,0,0-8.373,4.01A23.931,23.931,0,0,0,4.694,38.251a10.762,10.762,0,1,0,3.82-20.822Z" fill="#fac149"/>
      <path id="Path_42239" data-name="Path 42239" d="M4.694,38.251a10.751,10.751,0,0,0,8.4-.324A13.685,13.685,0,0,1,3.739,18.549a10.833,10.833,0,0,0-3.6,2.89A23.959,23.959,0,0,0,4.694,38.251Z" fill="#f8a748"/>
      <path id="Path_42240" data-name="Path 42240" d="M9.571,27.626H9.022V23.689h1.922a.7.7,0,1,0,0-1.406H9.022v-.891a.7.7,0,0,0-1.406,0v.891H7.153a3.375,3.375,0,0,0,0,6.749h.463v3.937H5.694a.7.7,0,0,0,0,1.406H7.616v.609a.7.7,0,0,0,1.406,0v-.609h.549a3.375,3.375,0,0,0,0-6.749Zm-2.418,0a1.969,1.969,0,0,1,0-3.937h.463v3.937Zm2.418,5.343H9.022V29.032h.549a1.969,1.969,0,1,1,0,3.937Z" fill="#fcd597"/>
      <path id="Path_42241" data-name="Path 42241" d="M40.627,2.847c-3.153-1.819-7.706,2.259-10.575,7.229A19.777,19.777,0,0,0,28.1,14.35h0l-.254.753,3.429-.777c.1-.256.216-.513.332-.77h0c2.6-5.747,6.659-8.632,7.526-8.129.517.3.886,3.6-2.063,8.7a19.945,19.945,0,0,1-4.411,5.336c-1.292,1.011-2.1,1.11-2.293,1a.271.271,0,0,1-.094-.1,3.238,3.238,0,0,0-2.864-.074c-.357,1.042.612,2.263,1.469,2.758C35.267,26.734,47.066,6.564,40.627,2.847Z" fill="#fac149"/>
      <path id="Path_42242" data-name="Path 42242" d="M34.983,14.812a1.612,1.612,0,0,0-1.9-1.094L19.814,16.724a1.611,1.611,0,0,0-1.04.766L5.912,39.768a24.028,24.028,0,0,0,22.253,7.869L38.872,29.093a1.612,1.612,0,0,0,.144-1.283ZM31.61,24.925a3.276,3.276,0,1,1-1.2-4.475A3.276,3.276,0,0,1,31.61,24.925Z" fill="#efefef"/>
      <path id="Path_42243" data-name="Path 42243" d="M21.62,20.483a1.611,1.611,0,0,1,1.04-.766L35.6,16.787l-.613-1.975a1.612,1.612,0,0,0-1.9-1.094L19.814,16.724a1.611,1.611,0,0,0-1.04.766L5.912,39.768A24.148,24.148,0,0,0,8.848,42.6Z" fill="#ddd"/>
      <path id="Path_42244" data-name="Path 42244" d="M35.574,16.383a17.247,17.247,0,0,1-2.911,3.083c-1.292,1.011-2.1,1.11-2.293,1l-.03.057.021.011a3.157,3.157,0,0,1,1.48,1.929,3.192,3.192,0,0,1,.105.78,11.8,11.8,0,0,0,4.683-3.458Z" fill="#fac149"/>
      <path id="Path_42245" data-name="Path 42245" d="M27.15,30.635l-3.7-2.137a.768.768,0,1,1,.768-1.331l3.7,2.137a.768.768,0,1,1-.768,1.331Z" fill="#ceccca"/>
      <path id="Path_42246" data-name="Path 42246" d="M21.764,38.269l-.5-.291,2.087-3.615,1.764,1.019a.745.745,0,1,0,.745-1.291l-1.764-1.019.472-.818a.745.745,0,1,0-1.291-.745l-.472.818-.425-.245a3.578,3.578,0,0,0-3.578,6.2l.425.245-2.087,3.615L15.372,41.12a.745.745,0,0,0-.745,1.291l1.764,1.019-.323.559a.745.745,0,1,0,1.291.745l.323-.559.5.291a3.578,3.578,0,0,0,3.578-6.2Zm-2.22-1.282a2.087,2.087,0,0,1,2.087-3.615l.425.245-2.087,3.615Zm-.613,6.188-.5-.291,2.087-3.615.5.291a2.087,2.087,0,0,1-2.087,3.615Z" fill="#647892"/>
    </g>
  </g>
</svg>
