<svg xmlns="http://www.w3.org/2000/svg" xmlns:xlink="http://www.w3.org/1999/xlink" width="18" height="18" viewBox="0 0 18 18">
  <defs>
    <clipPath id="clip-path">
      <rect id="Rectangle_1525" data-name="Rectangle 1525" width="18" height="18" transform="translate(748 457)" fill="#171717" stroke="#707070" stroke-width="1"/>
    </clipPath>
  </defs>
  <g id="Mask_Group_348" data-name="Mask Group 348" transform="translate(-748 -457)" clip-path="url(#clip-path)">
    <g id="list_5_" data-name="list (5)" transform="translate(748 457)">
      <g id="Group_11360" data-name="Group 11360">
        <g id="Group_11359" data-name="Group 11359">
          <circle id="Ellipse_54" data-name="Ellipse 54" cx="2.415" cy="2.415" r="2.415" transform="translate(1.537 6.585)" fill="#171717"/>
          <path id="Path_42275" data-name="Path 42275" d="M16.024,7.244H7.463a.439.439,0,0,0,0,.878h8.561a.439.439,0,0,0,0-.878Z" fill="#171717"/>
          <path id="Path_42276" data-name="Path 42276" d="M7.463,10.756h4.61a.439.439,0,1,0,0-.878H7.463a.439.439,0,1,0,0,.878Z" fill="#171717"/>
          <circle id="Ellipse_55" data-name="Ellipse 55" cx="2.415" cy="2.415" r="2.415" transform="translate(1.537 0)" fill="#171717"/>
          <path id="Path_42277" data-name="Path 42277" d="M7.463,1.537h8.561a.439.439,0,1,0,0-.878H7.463a.439.439,0,0,0,0,.878Z" fill="#171717"/>
          <path id="Path_42278" data-name="Path 42278" d="M7.463,4.171h4.61a.439.439,0,1,0,0-.878H7.463a.439.439,0,1,0,0,.878Z" fill="#171717"/>
          <circle id="Ellipse_56" data-name="Ellipse 56" cx="2.415" cy="2.415" r="2.415" transform="translate(1.537 13.171)" fill="#171717"/>
          <path id="Path_42279" data-name="Path 42279" d="M16.024,13.829H7.463a.439.439,0,1,0,0,.878h8.561a.439.439,0,1,0,0-.878Z" fill="#171717"/>
          <path id="Path_42280" data-name="Path 42280" d="M12.073,16.463H7.463a.439.439,0,0,0,0,.878h4.61a.439.439,0,0,0,0-.878Z" fill="#171717"/>
        </g>
      </g>
    </g>
  </g>
</svg>
