<svg xmlns="http://www.w3.org/2000/svg" xmlns:xlink="http://www.w3.org/1999/xlink" width="20" height="20" viewBox="0 0 20 20">
  <defs>
    <clipPath id="clip-path">
      <rect id="Rectangle_1520" data-name="Rectangle 1520" width="20" height="20" transform="translate(378 5466)" fill="#06bed8"/>
    </clipPath>
  </defs>
  <g id="Mask_Group_316" data-name="Mask Group 316" transform="translate(-378 -5466)" clip-path="url(#clip-path)">
    <path id="star_2_" data-name="star (2)" d="M19.469,7.153l-6.148-.939L10.565.344a.651.651,0,0,0-1.131,0L6.679,6.214.531,7.153A.625.625,0,0,0,.178,8.207l4.467,4.578L3.589,19.258a.625.625,0,0,0,.919.647L10,16.871l5.492,3.036a.625.625,0,0,0,.919-.647l-1.056-6.472,4.467-4.578a.626.626,0,0,0-.352-1.055Z" transform="translate(378 5466)" fill="#06bed8"/>
  </g>
</svg>
