<svg xmlns="http://www.w3.org/2000/svg" xmlns:xlink="http://www.w3.org/1999/xlink" width="48" height="48" viewBox="0 0 48 48">
  <defs>
    <clipPath id="clip-path">
      <rect id="Rectangle_1502" data-name="Rectangle 1502" width="48" height="48" transform="translate(306 5753)" fill="#06bed8"/>
    </clipPath>
  </defs>
  <g id="Mask_Group_332" data-name="Mask Group 332" transform="translate(-306 -5753)" clip-path="url(#clip-path)">
    <g id="edit_1_" data-name="edit (1)" transform="translate(306.001 5753)">
      <path id="Path_42139" data-name="Path 42139" d="M23.788,48a1.009,1.009,0,0,1-.708-.292,1,1,0,0,1-.274-.9l1.414-7.07a.98.98,0,0,1,.274-.512L40.05,23.668a3.006,3.006,0,0,1,4.242,0L47.12,26.5a3,3,0,0,1,0,4.242L31.564,46.294a1,1,0,0,1-.512.274l-7.07,1.414A1.061,1.061,0,0,1,23.788,48Zm2.336-7.578-1.06,5.3,5.3-1.06L45.708,29.322a1,1,0,0,0,0-1.414L42.88,25.08a1,1,0,0,0-1.414,0Zm4.734,5.164h.02Z" fill="#06bed8"/>
      <path id="Path_42140" data-name="Path 42140" d="M19,42H5a5,5,0,0,1-5-5V11A5,5,0,0,1,5,6H9A1,1,0,0,1,9,8H5a3,3,0,0,0-3,3V37a3,3,0,0,0,3,3H19a1,1,0,0,1,0,2Z" fill="#06bed8"/>
      <path id="Path_42141" data-name="Path 42141" d="M33,24a1,1,0,0,1-1-1V11a3,3,0,0,0-3-3H25a1,1,0,0,1,0-2h4a5,5,0,0,1,5,5V23A1,1,0,0,1,33,24Z" fill="#06bed8"/>
      <path id="Path_42142" data-name="Path 42142" d="M23,12H11A3,3,0,0,1,8,9V5A1,1,0,0,1,9,4h3.1a5,5,0,0,1,9.8,0H25a1,1,0,0,1,1,1V9A3,3,0,0,1,23,12ZM10,6V9a1,1,0,0,0,1,1H23a1,1,0,0,0,1-1V6H21a1,1,0,0,1-1-1,3,3,0,0,0-6,0,1,1,0,0,1-1,1Z" fill="#06bed8"/>
      <path id="Path_42143" data-name="Path 42143" d="M27,18H7a1,1,0,0,1,0-2H27a1,1,0,0,1,0,2Z" fill="#06bed8"/>
      <path id="Path_42144" data-name="Path 42144" d="M27,24H7a1,1,0,0,1,0-2H27a1,1,0,0,1,0,2Z" fill="#06bed8"/>
      <path id="Path_42145" data-name="Path 42145" d="M27,30H7a1,1,0,0,1,0-2H27a1,1,0,0,1,0,2Z" fill="#06bed8"/>
    </g>
  </g>
</svg>
