<svg xmlns="http://www.w3.org/2000/svg" xmlns:xlink="http://www.w3.org/1999/xlink" width="48" height="48" viewBox="0 0 48 48">
  <defs>
    <clipPath id="clip-path">
      <rect id="Rectangle_1502" data-name="Rectangle 1502" width="48" height="48" transform="translate(236 2029)" fill="#fff"/>
    </clipPath>
  </defs>
  <g id="Mask_Group_312" data-name="Mask Group 312" transform="translate(-236 -2029)" clip-path="url(#clip-path)">
    <g id="realtor" transform="translate(236 2029)">
      <path id="Path_42039" data-name="Path 42039" d="M32.444,35.434,37.1,27.8a3.016,3.016,0,0,1,5.561,1.983" fill="#eddfd6"/>
      <path id="Path_42040" data-name="Path 42040" d="M35.954,14.247l-.062.061V36.837H16.2V14.308l-.061-.061,9.906-9.9Z" fill="#cfdce5"/>
      <path id="Path_42041" data-name="Path 42041" d="M34.876,13.171V5.215H30.3V8.594" fill="#ff6f52"/>
      <path id="Path_42042" data-name="Path 42042" d="M35.892,14.9v2.384L26.048,7.443,16.2,17.288V14.905L26.048,5.06Z" fill="#bac6cc"/>
      <path id="Path_42043" data-name="Path 42043" d="M39.97,19.456,26.047,5.533,12.124,19.456l-1.191-1.191L26.047,3.151,41.162,18.265Z" fill="#415e72"/>
      <rect id="Rectangle_1514" data-name="Rectangle 1514" width="6.43" height="9.049" transform="translate(22.832 17.967)" fill="#fcd577"/>
      <path id="Path_42044" data-name="Path 42044" d="M29.824,27.578H22.271V17.405h7.553Zm-6.43-1.123H28.7V18.528H23.394Z" fill="#bac6cc"/>
      <path id="Path_42045" data-name="Path 42045" d="M46.6,34.5,31.98,43.732a7.233,7.233,0,0,1-4.941,1.037L9.777,42.16a3.648,3.648,0,0,0-2.545.558l-1.457.958-4.081-8L0,32.358a19.351,19.351,0,0,0,3.416-2.676,19.284,19.284,0,0,0,2.733-3.37,7.375,7.375,0,0,1,6.322-3.434,9.809,9.809,0,0,1,1.741.189l2.524.506h0l12.879,2.581a2.493,2.493,0,0,1,2,2.441,2.525,2.525,0,0,1-.074.6,2.568,2.568,0,0,1-2.9,1.916l-9.649-1.568a2.421,2.421,0,0,0-.38-.03,2.342,2.342,0,0,0-.388,4.651L29.337,36.05a4.43,4.43,0,0,0,2.88-.49l11.309-6.253A3.016,3.016,0,0,1,46.6,34.5Z" fill="#f9eade"/>
      <path id="Path_42046" data-name="Path 42046" d="M16.735,23.573h0A11.561,11.561,0,0,0,7.243,29.76a20.181,20.181,0,0,1-5.549,5.918L0,32.358a19.351,19.351,0,0,0,3.416-2.676,19.284,19.284,0,0,0,2.733-3.37,7.375,7.375,0,0,1,6.322-3.434,9.809,9.809,0,0,1,1.741.189Z" fill="#eddfd6"/>
    </g>
  </g>
</svg>
