<svg xmlns="http://www.w3.org/2000/svg" xmlns:xlink="http://www.w3.org/1999/xlink" width="25" height="25" viewBox="0 0 25 25">
  <defs>
    <clipPath id="clip-path">
      <rect id="Rectangle_5661" data-name="Rectangle 5661" width="25" height="25" transform="translate(142 781)" fill="#171717" stroke="#707070" stroke-width="1"/>
    </clipPath>
  </defs>
  <g id="Mask_Group_358" data-name="Mask Group 358" transform="translate(-142 -781)" clip-path="url(#clip-path)">
    <g id="certificate" transform="translate(142 781)">
      <path id="Path_53806" data-name="Path 53806" d="M19.336,10.4V1.7a1.7,1.7,0,0,0-1.7-1.7H3.845a1.7,1.7,0,0,0-1.7,1.7V19.787a1.7,1.7,0,0,0,1.7,1.7H14.258v2.734a.782.782,0,0,0,1.169.678l2.347-1.341C20.365,25.036,20.23,25,20.507,25a.782.782,0,0,0,.781-.781V18.894A5.079,5.079,0,0,0,19.336,10.4ZM3.845,19.921a.134.134,0,0,1-.134-.134V1.7a.134.134,0,0,1,.134-.134H17.639a.134.134,0,0,1,.134.134v8.459a5.075,5.075,0,0,0-3.515,8.739v1.027Zm15.881,2.951-1.565-.895a.781.781,0,0,0-.775,0l-1.565.895V19.921a5.073,5.073,0,0,0,3.906,0v2.951Zm-1.953-4.122a3.515,3.515,0,1,1,3.515-3.515A3.519,3.519,0,0,1,17.773,18.749Z" fill="#171717"/>
      <path id="Path_53807" data-name="Path 53807" d="M17.382,17.236c-.305,0-.344-.072-1.6-.913a.781.781,0,0,1,.867-1.3l.522.348L18.3,13.677a.781.781,0,1,1,1.3.867l-1.562,2.344a.781.781,0,0,1-.651.348Z" fill="#171717"/>
      <path id="Path_53808" data-name="Path 53808" d="M13.477,5.469H6.836a.781.781,0,1,1,0-1.562h6.64a.781.781,0,0,1,0,1.562Z" fill="#171717"/>
      <path id="Path_53809" data-name="Path 53809" d="M13.477,8.593H6.836a.781.781,0,1,1,0-1.562h6.64a.781.781,0,1,1,0,1.562Z" fill="#171717"/>
      <path id="Path_53810" data-name="Path 53810" d="M10.742,11.718H6.836a.781.781,0,1,1,0-1.562h3.906a.781.781,0,0,1,0,1.562Z" fill="#171717"/>
    </g>
  </g>
</svg>
