<svg xmlns="http://www.w3.org/2000/svg" xmlns:xlink="http://www.w3.org/1999/xlink" width="48" height="48" viewBox="0 0 48 48">
  <defs>
    <clipPath id="clip-path">
      <rect id="Rectangle_5646" data-name="Rectangle 5646" width="48" height="48" transform="translate(238 8106)" fill="#fff" stroke="#707070" stroke-width="1"/>
    </clipPath>
  </defs>
  <g id="Mask_Group_336" data-name="Mask Group 336" transform="translate(-238 -8106)" clip-path="url(#clip-path)">
    <g id="teamwork" transform="translate(238 8106)">
      <path id="Path_42158" data-name="Path 42158" d="M48,24A23.984,23.984,0,0,1,31.277,46.875a23.52,23.52,0,0,1-3.46.822l-.016,0q-.872.14-1.763.215-.19.016-.381.029c-.179.012-.36.022-.541.03Q24.561,48,24,48q-.576,0-1.144-.027-.257-.012-.515-.03c-.128-.009-.256-.018-.383-.028q-.912-.076-1.805-.222c-.284-.046-.567-.1-.847-.152a23.705,23.705,0,0,1-3.538-.99q-.992-.361-1.942-.807-.323-.152-.643-.315-.82-.414-1.6-.89A24,24,0,1,1,48,24Zm0,0" fill="#06bed8"/>
      <path id="Path_42159" data-name="Path 42159" d="M19.306,31.145v16.4a23.705,23.705,0,0,1-3.538-.99q-.992-.361-1.942-.807-.323-.152-.643-.315-.82-.414-1.6-.89a24.07,24.07,0,0,1-9.523-10.8V31.145a6.505,6.505,0,0,1,4.819-6.283c.1-.027.2-.053.308-.074a6.282,6.282,0,0,1,.846-.126c.175-.014.353-.022.532-.022H12.8a6.467,6.467,0,0,1,1.38.147l.076.016c.075.017.15.035.223.055l.006,0a6.512,6.512,0,0,1,4.821,6.284Zm0,0" fill="#807c7c"/>
      <path id="Path_42160" data-name="Path 42160" d="M19.306,31.145v16.4a23.705,23.705,0,0,1-3.538-.99q-.992-.361-1.942-.807-.323-.152-.643-.315-.82-.414-1.6-.89a24.126,24.126,0,0,1-6.731-6.07V31.145a6.505,6.505,0,0,1,4.819-6.283c.1-.027.2-.053.308-.074a6.3,6.3,0,0,1,.846-.126c.175-.014.353-.022.532-.022H12.8a6.467,6.467,0,0,1,1.38.147l.076.016c.075.017.15.035.223.055l.006,0a6.512,6.512,0,0,1,4.821,6.284Zm0,0" fill="#929292"/>
      <path id="Path_42161" data-name="Path 42161" d="M14.5,24.787l-.015.074L12.54,33.912a1.893,1.893,0,0,1-1.841,1.5h-.033a1.893,1.893,0,0,1-1.841-1.5l-1.946-9.05-.015-.074Zm0,0" fill="#f2f0ec"/>
      <path id="Path_42162" data-name="Path 42162" d="M10.682,27.3,7.753,28.931l-.891-4.144,1.82-1.072" fill="#d8d5d0"/>
      <path id="Path_42163" data-name="Path 42163" d="M10.682,27.3l2.929,1.627.891-4.144-1.82-1.072" fill="#d8d5d0"/>
      <path id="Path_42164" data-name="Path 42164" d="M1.938,23.073v-9.81a8.744,8.744,0,1,1,17.489,0v9.81" fill="#cc7a3b"/>
      <path id="Path_42165" data-name="Path 42165" d="M5.535,13.646c0,3.47,2.032,7.484,3.148,9.427H1.938v-9.81a8.739,8.739,0,0,1,8.681-8.744C7.93,4.586,5.535,8.9,5.535,13.646Zm0,0" fill="#a35418"/>
      <path id="Path_42166" data-name="Path 42166" d="M13,22.135v2.848a2.321,2.321,0,0,1-4.641,0V22.135Zm0,0" fill="#eab599"/>
      <path id="Path_42167" data-name="Path 42167" d="M13,24.8v.181A2.32,2.32,0,0,1,11.369,27.2a2.32,2.32,0,0,1-1.615-1.915q.232.014.467.014A8.017,8.017,0,0,0,13,24.8Zm0,0" fill="#f6caae"/>
      <path id="Path_42168" data-name="Path 42168" d="M4.317,17.467A2.158,2.158,0,1,1,2.5,15.337a2.158,2.158,0,0,1,1.813,2.13Zm0,0" fill="#f6caae"/>
      <path id="Path_42169" data-name="Path 42169" d="M4.317,17.467A2.158,2.158,0,0,1,2.5,19.6a8.068,8.068,0,0,1,0-4.261,2.158,2.158,0,0,1,1.813,2.13Zm0,0" fill="#eab599"/>
      <path id="Path_42170" data-name="Path 42170" d="M2.93,17.467a.771.771,0,1,1-.772-.771A.771.771,0,0,1,2.93,17.467Zm0,0" fill="#eab599"/>
      <path id="Path_42171" data-name="Path 42171" d="M16.224,14.711V22.13a8,8,0,0,1-4.253,2.116l-.04.007a7.929,7.929,0,0,1-1.25.1,8.03,8.03,0,0,1-8.03-8.03V13.263a8.092,8.092,0,0,1,.082-1.153,5.089,5.089,0,0,0,6.4-.411,4.548,4.548,0,0,0,1.207-1.886,5.3,5.3,0,0,0,1.657,3.308,5.926,5.926,0,0,0,4.23,1.591Zm0,0" fill="#eab599"/>
      <path id="Path_42172" data-name="Path 42172" d="M16.224,14.711V22.13a8,8,0,0,1-4.253,2.116l-.04.007a8.031,8.031,0,0,1-6.779-7.932V13.263q0-.122,0-.243A5.032,5.032,0,0,0,9.13,11.7a4.547,4.547,0,0,0,1.207-1.885,5.3,5.3,0,0,0,1.657,3.308,5.926,5.926,0,0,0,4.23,1.591Zm0,0" fill="#f6caae"/>
      <path id="Path_42173" data-name="Path 42173" d="M15,15.642a1.334,1.334,0,0,0-2.667,0" fill="#eab599"/>
      <path id="Path_42174" data-name="Path 42174" d="M9.038,15.642a1.334,1.334,0,1,0-2.667,0" fill="#eab599"/>
      <path id="Path_42175" data-name="Path 42175" d="M8.616,16.21A.911.911,0,1,1,7.7,15.3.911.911,0,0,1,8.616,16.21Zm0,0" fill="#3d4159"/>
      <path id="Path_42176" data-name="Path 42176" d="M14.572,16.21a.911.911,0,1,1-.911-.911A.911.911,0,0,1,14.572,16.21Zm0,0" fill="#3d4159"/>
      <path id="Path_42177" data-name="Path 42177" d="M11.594,18.5H9.772a.393.393,0,1,1,0-.786h1.822a.393.393,0,0,1,0,.786Zm0,0" fill="#eab599"/>
      <path id="Path_42178" data-name="Path 42178" d="M10.683,20.99a4.056,4.056,0,0,1-1.958-.506.357.357,0,1,1,.344-.626,3.333,3.333,0,0,0,3.227,0,.357.357,0,1,1,.344.626,4.056,4.056,0,0,1-1.958.506Zm0,0" fill="#eab599"/>
      <path id="Path_42179" data-name="Path 42179" d="M8.43,16.049a.39.39,0,1,1-.39-.39A.39.39,0,0,1,8.43,16.049Zm0,0" fill="#fff"/>
      <path id="Path_42180" data-name="Path 42180" d="M14.431,16.049a.39.39,0,1,1-.39-.39A.39.39,0,0,1,14.431,16.049Zm0,0" fill="#fff"/>
      <path id="Path_42181" data-name="Path 42181" d="M16.148,18.429a1,1,0,1,1-1-1A1,1,0,0,1,16.148,18.429Zm0,0" fill="#eab599"/>
      <path id="Path_42182" data-name="Path 42182" d="M7.218,18.429a1,1,0,1,1-1-1A1,1,0,0,1,7.218,18.429Zm0,0" fill="#eab599"/>
      <path id="Path_42183" data-name="Path 42183" d="M45.846,30.947v3A24.1,24.1,0,0,1,34.173,45.744,23.952,23.952,0,0,1,27.817,47.7l-.016,0V30.947a6.8,6.8,0,0,1,6.249-6.782c.184-.016.369-.022.556-.022h4.432a6.795,6.795,0,0,1,6.807,6.8Zm0,0" fill="#bfd5de"/>
      <path id="Path_42184" data-name="Path 42184" d="M45.846,30.947v3A24.1,24.1,0,0,1,34.173,45.744a23.752,23.752,0,0,1-2.9,1.131V30.947a6.806,6.806,0,0,1,6.806-6.8h.956a6.8,6.8,0,0,1,6.806,6.8Zm0,0" fill="#dde8ed"/>
      <path id="Path_42185" data-name="Path 42185" d="M30.162,16.637a2.256,2.256,0,1,1-1.9-2.229,2.258,2.258,0,0,1,1.9,2.229Zm0,0" fill="#d3a489"/>
      <path id="Path_42186" data-name="Path 42186" d="M38.651,26.6l-1.827,2.93L35,26.6" fill="#f74f4f"/>
      <path id="Path_42187" data-name="Path 42187" d="M39.282,37.806l-2.458,3.1-2.458-3.1,2.459-9.04Zm0,0" fill="#f74f4f"/>
      <path id="Path_42188" data-name="Path 42188" d="M30.162,16.637a2.258,2.258,0,0,1-1.9,2.229,8.444,8.444,0,0,1,0-4.458A2.259,2.259,0,0,1,30.162,16.637Zm0,0" fill="#bf8e75"/>
      <path id="Path_42189" data-name="Path 42189" d="M28.712,16.637a.807.807,0,1,1-.807-.807A.807.807,0,0,1,28.712,16.637Zm0,0" fill="#bf8e75"/>
      <path id="Path_42190" data-name="Path 42190" d="M36.823,26.928l-3.064,1.7L32.827,24.3l1.9-1.121" fill="#bfd5de"/>
      <path id="Path_42191" data-name="Path 42191" d="M36.823,26.928l3.064,1.7.932-4.336-1.9-1.121" fill="#bfd5de"/>
      <path id="Path_42192" data-name="Path 42192" d="M43.484,16.637a2.256,2.256,0,1,0,1.9-2.229,2.258,2.258,0,0,0-1.9,2.229Zm0,0" fill="#d3a489"/>
      <g id="Group_11331" data-name="Group 11331">
        <path id="Path_42193" data-name="Path 42193" d="M43.484,16.637a2.258,2.258,0,0,0,1.9,2.229,8.444,8.444,0,0,0,0-4.458A2.259,2.259,0,0,0,43.484,16.637Zm0,0" fill="#bf8e75"/>
        <path id="Path_42194" data-name="Path 42194" d="M46.549,16.637a.807.807,0,1,1-.807-.807A.807.807,0,0,1,46.549,16.637Zm0,0" fill="#bf8e75"/>
        <path id="Path_42195" data-name="Path 42195" d="M45.225,15.437a8.4,8.4,0,0,1-7.053,8.293,8.3,8.3,0,0,1-1.348.108,8.4,8.4,0,0,1-8.4-8.4c0-2.2.762-5.491,2.141-6.988,1.535-1.667,3.815-1.414,6.26-1.414a8.3,8.3,0,0,1,1.348.109,8.4,8.4,0,0,1,7.053,8.293Zm0,0" fill="#bf8e75"/>
        <path id="Path_42196" data-name="Path 42196" d="M39.252,21.521V24.5a2.428,2.428,0,0,1-4.856,0v-2.98Zm0,0" fill="#bf8e75"/>
      </g>
      <path id="Path_42197" data-name="Path 42197" d="M39.252,24.312V24.5a2.428,2.428,0,0,1-1.71,2.319,2.427,2.427,0,0,1-1.69-2q.243.015.489.015a8.347,8.347,0,0,0,1.348-.108,8.261,8.261,0,0,0,1.563-.412Zm0,0" fill="#d3a489"/>
      <path id="Path_42198" data-name="Path 42198" d="M45.225,15.437a8.4,8.4,0,0,1-7.053,8.293,8.4,8.4,0,0,1,0-16.586A8.4,8.4,0,0,1,45.183,14.6c.027.276.041.556.041.838Zm0,0" fill="#d3a489"/>
      <path id="Path_42199" data-name="Path 42199" d="M36.824,19.575a4.243,4.243,0,0,1-2.048-.529.374.374,0,1,1,.36-.655,3.489,3.489,0,0,0,3.376,0,.374.374,0,0,1,.36.655,4.245,4.245,0,0,1-2.048.529Zm0,0" fill="#bf8e75"/>
      <path id="Path_42200" data-name="Path 42200" d="M35.034,14.948A.953.953,0,1,1,34.081,14,.953.953,0,0,1,35.034,14.948Zm0,0" fill="#3d4159"/>
      <path id="Path_42201" data-name="Path 42201" d="M40.519,14.948A.953.953,0,1,1,39.566,14,.953.953,0,0,1,40.519,14.948Zm0,0" fill="#3d4159"/>
      <path id="Path_42202" data-name="Path 42202" d="M34.84,14.78a.408.408,0,1,1-.408-.408A.409.409,0,0,1,34.84,14.78Zm0,0" fill="#fff"/>
      <path id="Path_42203" data-name="Path 42203" d="M40.371,14.78a.408.408,0,1,1-.408-.408A.409.409,0,0,1,40.371,14.78Zm0,0" fill="#fff"/>
      <path id="Path_42204" data-name="Path 42204" d="M37.776,17.348H35.87a.411.411,0,1,1,0-.822h1.906a.411.411,0,1,1,0,.822Zm0,0" fill="#bf8e75"/>
      <path id="Path_42205" data-name="Path 42205" d="M39.59,30.724h3.662v1.121H39.59Zm0,0" fill="#bfd5de"/>
      <path id="Path_42206" data-name="Path 42206" d="M36.332,4.636A5.092,5.092,0,0,1,41.05,9.461l.024.486h1.464l.788,5.243,1.91-.591L44.98,9.462a5.092,5.092,0,0,0-5.1-4.839Zm0,0" fill="#2a2f4f"/>
      <path id="Path_42207" data-name="Path 42207" d="M44.818,2.608a5.19,5.19,0,0,1-7.339,7.339Zm0,0" fill="#3d4159"/>
      <path id="Path_42208" data-name="Path 42208" d="M37.479,9.947H31.11l-.789,5.244-1.91-.591.256-5.138a5.093,5.093,0,0,1,5.105-4.839l9.2.035,1.216,2.189" fill="#3d4159"/>
      <path id="Path_42209" data-name="Path 42209" d="M37.315,4.636A5.092,5.092,0,0,0,32.6,9.461l-.024.486H31.109l-.789,5.243-1.91-.591.256-5.138a5.092,5.092,0,0,1,5.1-4.839Zm0,0" fill="#2a2f4f"/>
      <path id="Path_42210" data-name="Path 42210" d="M34.173,43.944v1.8a24.063,24.063,0,0,1-20.347,0v-1.8a7.676,7.676,0,0,1,5.685-7.414c.12-.032.24-.062.363-.088a7.587,7.587,0,0,1,1-.147c.208-.017.416-.026.628-.026h5a7.692,7.692,0,0,1,1.628.172l.09.02c.088.021.176.042.263.066l.007,0a7.682,7.682,0,0,1,5.687,7.415Zm0,0" fill="#3d4159"/>
      <path id="Path_42211" data-name="Path 42211" d="M28.505,36.443l-.019.087L26.039,47.914q-.19.016-.381.029c-.179.012-.36.022-.541.03Q24.561,48,24,48q-.576,0-1.144-.027-.257-.012-.515-.03c-.128-.009-.256-.018-.383-.028L19.511,36.531l-.018-.088Zm0,0" fill="#66baed"/>
      <path id="Path_42212" data-name="Path 42212" d="M26.06,39.039,24,42.343l-2.06-3.3" fill="#3d4159"/>
      <path id="Path_42213" data-name="Path 42213" d="M25.657,47.943c-.179.012-.36.022-.541.03Q24.561,48,24,48q-.576,0-1.144-.027-.257-.012-.515-.03L24,41.484Zm0,0" fill="#3d4159"/>
      <path id="Path_42214" data-name="Path 42214" d="M24,39.412l-3.455,1.92-1.051-4.889,2.147-1.265" fill="#2ba1cf"/>
      <path id="Path_42215" data-name="Path 42215" d="M24,39.412l3.455,1.92L28.5,36.443l-2.147-1.265" fill="#2ba1cf"/>
      <path id="Path_42216" data-name="Path 42216" d="M28.635,43.04h1.1L27.817,47.7a23.851,23.851,0,0,1-2.7.276l3.363-11.446.026-.085,2.364.772Zm0,0" fill="#2a2f4f"/>
      <path id="Path_42217" data-name="Path 42217" d="M22.856,47.972a23.774,23.774,0,0,1-2.7-.28L18.241,43.04h1.1L17.1,37.215l2.365-.772.026.085Zm0,0" fill="#2a2f4f"/>
      <path id="Path_42218" data-name="Path 42218" d="M26.737,33.314v3.36a2.738,2.738,0,0,1-5.476,0v-3.36Zm0,0" fill="#eab599"/>
      <path id="Path_42219" data-name="Path 42219" d="M26.737,36.461v.213a2.738,2.738,0,0,1-1.928,2.615A2.737,2.737,0,0,1,22.9,37.031q.275.017.552.017a9.44,9.44,0,0,0,3.283-.586Zm0,0" fill="#f6caae"/>
      <path id="Path_42220" data-name="Path 42220" d="M16.488,27.807a2.547,2.547,0,0,1-2.139,2.514,2.576,2.576,0,0,1-.408.033,2.546,2.546,0,1,1,2.546-2.546Zm0,0" fill="#f6caae"/>
      <path id="Path_42221" data-name="Path 42221" d="M16.488,27.807a2.547,2.547,0,0,1-2.139,2.514,9.526,9.526,0,0,1,0-5.027A2.547,2.547,0,0,1,16.488,27.807Zm0,0" fill="#eab599"/>
      <path id="Path_42222" data-name="Path 42222" d="M14.852,27.807a.91.91,0,1,1-.91-.91A.91.91,0,0,1,14.852,27.807Zm0,0" fill="#eab599"/>
      <path id="Path_42223" data-name="Path 42223" d="M31.51,27.807a2.547,2.547,0,1,0,2.139-2.514,2.547,2.547,0,0,0-2.139,2.514Zm0,0" fill="#f6caae"/>
      <path id="Path_42224" data-name="Path 42224" d="M31.51,27.807a2.547,2.547,0,0,0,2.139,2.514,9.526,9.526,0,0,0,0-5.027A2.547,2.547,0,0,0,31.51,27.807Zm0,0" fill="#eab599"/>
      <path id="Path_42225" data-name="Path 42225" d="M33.473,22.846v3.608a9.474,9.474,0,0,1-7.954,9.351l-.046.008A9.308,9.308,0,0,1,24,35.927a9.473,9.473,0,0,1-9.473-9.473V22.846A9.468,9.468,0,0,1,24,13.372h0a9.467,9.467,0,0,1,9.473,9.474Zm0,0" fill="#eab599"/>
      <path id="Path_42226" data-name="Path 42226" d="M34.966,27.807a.91.91,0,1,1-.91-.91A.91.91,0,0,1,34.966,27.807Zm0,0" fill="#eab599"/>
      <path id="Path_42227" data-name="Path 42227" d="M33.473,22.846v3.608a9.474,9.474,0,0,1-7.953,9.351l-.047.008a9.475,9.475,0,0,1-8-9.359V22.846a9.476,9.476,0,0,1,8-9.36,9.475,9.475,0,0,1,8,9.36Zm0,0" fill="#f6caae"/>
      <path id="Path_42228" data-name="Path 42228" d="M21.981,25.9a1.075,1.075,0,1,1-1.074-1.074A1.075,1.075,0,0,1,21.981,25.9Zm0,0" fill="#3d4159"/>
      <path id="Path_42229" data-name="Path 42229" d="M28.166,25.9a1.075,1.075,0,1,1-1.075-1.074A1.075,1.075,0,0,1,28.166,25.9Zm0,0" fill="#3d4159"/>
      <path id="Path_42230" data-name="Path 42230" d="M21.762,25.713a.461.461,0,1,1-.461-.461A.461.461,0,0,1,21.762,25.713Zm0,0" fill="#fff"/>
      <path id="Path_42231" data-name="Path 42231" d="M28,25.713a.461.461,0,1,1-.46-.461A.46.46,0,0,1,28,25.713Zm0,0" fill="#fff"/>
      <path id="Path_42232" data-name="Path 42232" d="M25.074,28.187h-2.15a.464.464,0,0,1,0-.927h2.15a.464.464,0,1,1,0,.927Zm0,0" fill="#eab599"/>
      <path id="Path_42233" data-name="Path 42233" d="M24,31.12a4.786,4.786,0,0,1-2.31-.6.421.421,0,0,1,.406-.739,3.931,3.931,0,0,0,3.807,0,.421.421,0,0,1,.406.739,4.787,4.787,0,0,1-2.31.6Zm0,0" fill="#eab599"/>
      <path id="Path_42234" data-name="Path 42234" d="M33.473,19.572v3.7H31.71V20.374L18.982,18.009l-2.693-.5v5.76H14.525v-3.7a7.627,7.627,0,0,1,7.627-7.627h3.694c.1,0,.2,0,.3.007a7.626,7.626,0,0,1,7.326,7.621Zm0,0" fill="#2a2f4f"/>
      <path id="Path_42235" data-name="Path 42235" d="M33.473,19.572v3.7H31.71V20.374L18.982,18.009a7.628,7.628,0,0,1,7.166-6.057,7.626,7.626,0,0,1,7.326,7.621Zm0,0" fill="#3d4159"/>
    </g>
  </g>
</svg>
