<svg xmlns="http://www.w3.org/2000/svg" xmlns:xlink="http://www.w3.org/1999/xlink" width="18" height="18" viewBox="0 0 18 18">
  <defs>
    <clipPath id="clip-path">
      <rect id="Rectangle_1525" data-name="Rectangle 1525" width="18" height="18" transform="translate(1425 47)" fill="#929292" stroke="#707070" stroke-width="1"/>
    </clipPath>
  </defs>
  <g id="Mask_Group_321" data-name="Mask Group 321" transform="translate(-1425 -47)" clip-path="url(#clip-path)">
    <g id="pin" transform="translate(1427.25 47)">
      <g id="Group_11186" data-name="Group 11186">
        <path id="Path_42085" data-name="Path 42085" d="M8.75,0A6.758,6.758,0,0,0,2,6.75c0,4.98,6.228,10.9,6.493,11.148a.375.375,0,0,0,.514,0C9.272,17.648,15.5,11.73,15.5,6.75A6.758,6.758,0,0,0,8.75,0Zm0,10.5A3.75,3.75,0,1,1,12.5,6.75,3.754,3.754,0,0,1,8.75,10.5Z" transform="translate(-2)" fill="#929292"/>
      </g>
    </g>
  </g>
</svg>
