<svg xmlns="http://www.w3.org/2000/svg" xmlns:xlink="http://www.w3.org/1999/xlink" width="48" height="48" viewBox="0 0 48 48">
  <defs>
    <clipPath id="clip-path">
      <rect id="Rectangle_1507" data-name="Rectangle 1507" width="48" height="48" transform="translate(796 2029)" fill="#fff"/>
    </clipPath>
  </defs>
  <g id="Mask_Group_313" data-name="Mask Group 313" transform="translate(-796 -2029)" clip-path="url(#clip-path)">
    <g id="flat" transform="translate(793.517 2026.517)">
      <path id="Path_42047" data-name="Path 42047" d="M39.419,15.724,36.795,9.163a2.276,2.276,0,0,1,.851-2.739l.059-.039a10.552,10.552,0,0,1,11.706,0l.059.039a2.276,2.276,0,0,1,.851,2.739L47.7,15.724Z" fill="#ffb3b3"/>
      <path id="Path_42048" data-name="Path 42048" d="M42.729,16.552a.828.828,0,0,1-.811-.665l-.828-4.138a.828.828,0,1,1,1.623-.325l.828,4.138a.828.828,0,0,1-.649.974.84.84,0,0,1-.163.016Z" fill="#faa6b2"/>
      <path id="Path_42049" data-name="Path 42049" d="M44.386,16.552a.841.841,0,0,1-.163-.016.828.828,0,0,1-.649-.974l.828-4.138a.828.828,0,1,1,1.623.325L45.2,15.886a.828.828,0,0,1-.811.665Z" fill="#faa6b2"/>
      <circle id="Ellipse_32" data-name="Ellipse 32" cx="10.759" cy="10.759" r="10.759" transform="translate(4.138 27.31)" fill="#0bafea"/>
      <path id="Path_42050" data-name="Path 42050" d="M24.794,42.291a10.731,10.731,0,0,1-.83,1.571H5.828A10.731,10.731,0,0,1,5,42.291Z" fill="#0276b4"/>
      <path id="Path_42051" data-name="Path 42051" d="M43.557,50.483A2.483,2.483,0,0,1,41.075,48V30.621H46.04V48a2.483,2.483,0,0,1-2.483,2.483Z" fill="#683b0d"/>
      <path id="Path_42052" data-name="Path 42052" d="M41.074,30.621H46.04v1.655H41.074Z" fill="#683b0d"/>
      <path id="Path_42053" data-name="Path 42053" d="M46.04,30.621H41.075l-.357-1.784a66.864,66.864,0,0,1-1.3-13.113H47.7a66.854,66.854,0,0,1-1.3,13.112Z" fill="#eaeae8"/>
      <path id="Path_42054" data-name="Path 42054" d="M46.868,23.172H44.385a.828.828,0,1,1,0-1.655h2.483a.828.828,0,1,1,0,1.655Z" fill="#fbfdff"/>
      <path id="Path_42055" data-name="Path 42055" d="M30.621,40.552h6.621v9.931H30.621Z" fill="#ea9d2d"/>
      <path id="Path_42056" data-name="Path 42056" d="M30.621,37.241h6.621v3.31H30.621Z" fill="#fbb540"/>
      <path id="Path_42057" data-name="Path 42057" d="M36.414,37.241H31.448V27.918a1.034,1.034,0,0,1,1.362-.981l1.623.541a2.9,2.9,0,0,1,1.981,2.748Z" fill="#d32b39"/>
      <path id="Path_42058" data-name="Path 42058" d="M24.794,42.291a10.731,10.731,0,0,1-.83,1.571H5.828A10.731,10.731,0,0,1,5,42.291Z" fill="#0276b4"/>
      <g id="Group_11146" data-name="Group 11146">
        <circle id="Ellipse_33" data-name="Ellipse 33" cx="7.448" cy="7.448" r="7.448" transform="translate(7.448 30.621)" fill="#eaeae8"/>
        <path id="Path_42059" data-name="Path 42059" d="M19.238,32.017l-9.194,11.7a7.454,7.454,0,0,1-2.035-2.812l7.683-10.244A7.4,7.4,0,0,1,19.238,32.017Z" fill="#eaeae8"/>
        <path id="Path_42060" data-name="Path 42060" d="M22.184,36.527,16.076,44.3a.828.828,0,1,1-1.3-1.022l6.756-8.6A7.333,7.333,0,0,1,22.184,36.527Z" fill="#eaeae8"/>
      </g>
      <path id="Path_42061" data-name="Path 42061" d="M2.483,43.862H27.31v.414A6.207,6.207,0,0,1,21.1,50.483H8.69a6.207,6.207,0,0,1-6.207-6.207Z" fill="#0bafea"/>
      <path id="Path_42062" data-name="Path 42062" d="M19.238,32.017l-9.194,11.7a7.454,7.454,0,0,1-2.035-2.812l7.683-10.244A7.4,7.4,0,0,1,19.238,32.017Z" fill="#fbfdff"/>
      <path id="Path_42063" data-name="Path 42063" d="M22.184,36.527,16.076,44.3a.827.827,0,0,1-1.162.14c-.36-.282-1.039-.008-.756-.367l7.373-9.393a7.333,7.333,0,0,1,.654,1.846Z" fill="#fbfdff"/>
      <path id="Path_42064" data-name="Path 42064" d="M28.966,9.931a5.234,5.234,0,0,1-3.31,3.31l1.326.884A5.235,5.235,0,0,1,28.76,16.14l.206.412.206-.412a5.234,5.234,0,0,1,1.778-2.014l1.326-.884A5.234,5.234,0,0,1,28.966,9.931Z" fill="#fbb540"/>
      <path id="Path_42065" data-name="Path 42065" d="M19.862,14.9a5.234,5.234,0,0,1-3.31,3.31l1.326.884a5.235,5.235,0,0,1,1.778,2.014l.206.412.206-.412a5.234,5.234,0,0,1,1.778-2.014l1.326-.884a5.234,5.234,0,0,1-3.31-3.31Z" fill="#fbb540"/>
      <path id="Path_42066" data-name="Path 42066" d="M23.172,2.483a5.234,5.234,0,0,1-3.31,3.31l1.326.884a5.234,5.234,0,0,1,1.778,2.014l.206.412.206-.412a5.234,5.234,0,0,1,1.778-2.014l1.326-.884a5.234,5.234,0,0,1-3.31-3.31Z" fill="#fbb540"/>
      <rect id="Rectangle_1515" data-name="Rectangle 1515" width="8.276" height="3.31" rx="1.655" transform="translate(10.759 43.862)" fill="#0276b4"/>
      <path id="Path_42067" data-name="Path 42067" d="M31.448,35.586h4.966v1.655H31.448Z" fill="#961b20"/>
      <path id="Path_42068" data-name="Path 42068" d="M41.074,30.621H46.04v1.655H41.074Z" fill="#533222"/>
    </g>
  </g>
</svg>
