<svg xmlns="http://www.w3.org/2000/svg" xmlns:xlink="http://www.w3.org/1999/xlink" width="19" height="19" viewBox="0 0 19 19">
  <defs>
    <clipPath id="clip-path">
      <rect id="Rectangle_5661" data-name="Rectangle 5661" width="19" height="19" transform="translate(203 428)" fill="#171717" stroke="#707070" stroke-width="1"/>
    </clipPath>
  </defs>
  <g id="Mask_Group_344" data-name="Mask Group 344" transform="translate(-203 -428)" clip-path="url(#clip-path)">
    <g id="funnel" transform="translate(203 428)">
      <g id="Group_11351" data-name="Group 11351">
        <path id="Path_42266" data-name="Path 42266" d="M17.639,3.069c0-.015,0-.029,0-.044V.487A.473.473,0,0,0,17.177,0H1.83a.469.469,0,0,0-.468.473V3.025c0,.015-.01.029,0,.044s0,.015,0,.019v.024a.044.044,0,0,0,0,.024.037.037,0,0,1,0,.019.211.211,0,0,1,0,.024s0,.015,0,.019,0,.015.01.024,0,.015.01.019,0,.015.01.019a.037.037,0,0,1,.01.019s.01.015.01.019.01.015.015.019.01.01.01.015a.024.024,0,0,1,.015,0l5.841,6.869v8.3a.472.472,0,0,0,.268.438.486.486,0,0,0,.2.049.476.476,0,0,0,.3-.107L11.52,16.1a.474.474,0,0,0,.171-.38v-5.51l5.836-6.869a.015.015,0,0,0,.01,0l.015-.015s.01-.015.015-.019.01-.015.015-.019a296.8,296.8,0,0,1,.019-.039s0-.015.01-.019,0-.015.01-.024a.029.029,0,0,0,0-.019.044.044,0,0,0,0-.024c0-.01,0-.015,0-.019a.211.211,0,0,0,0-.024.211.211,0,0,1,0-.024S17.635,3.074,17.639,3.069Zm-6.8,6.645a.507.507,0,0,0-.127.317v5.456l-2.436,2V10.031a.507.507,0,0,0-.127-.317L2.883,3.508H16.115ZM16.66,2.533H2.337V.974H16.66Z" fill="#171717"/>
      </g>
    </g>
  </g>
</svg>
