<svg xmlns="http://www.w3.org/2000/svg" xmlns:xlink="http://www.w3.org/1999/xlink" width="48" height="48" viewBox="0 0 48 48">
  <defs>
    <clipPath id="clip-path">
      <rect id="Rectangle_1505" data-name="Rectangle 1505" width="48" height="48" transform="translate(516 2029)" fill="#fff"/>
    </clipPath>
  </defs>
  <g id="Mask_Group_309" data-name="Mask Group 309" transform="translate(-516 -2029)" clip-path="url(#clip-path)">
    <g id="babysitter" transform="translate(515.024 2028.024)">
      <g id="Group_11129" data-name="Group 11129">
        <path id="Path_41986" data-name="Path 41986" d="M9.756,12.341a5.268,5.268,0,1,1,5.268-5.268A5.284,5.284,0,0,1,9.756,12.341Z" fill="#ffd3b3"/>
        <g id="Group_11126" data-name="Group 11126">
          <path id="Path_41987" data-name="Path 41987" d="M12.894,48.146a2.2,2.2,0,0,0,2.2-2.2V30.683H10.7V45.951A2.2,2.2,0,0,0,12.894,48.146Z" fill="#ffd3b3"/>
          <path id="Path_41988" data-name="Path 41988" d="M6.754,48.146a2.2,2.2,0,0,0,2.2-2.2V30.683H4.558V45.951A2.2,2.2,0,0,0,6.754,48.146Z" fill="#ffd3b3"/>
        </g>
        <g id="Group_11127" data-name="Group 11127">
          <path id="Path_41989" data-name="Path 41989" d="M22.361,22.559a1.609,1.609,0,0,1-2.269,0l-6.808-6.808a1.6,1.6,0,0,1,2.269-2.269l6.808,6.808A1.609,1.609,0,0,1,22.361,22.559Z" fill="#edeff1"/>
          <path id="Path_41990" data-name="Path 41990" d="M20.092,22.559a1.6,1.6,0,0,0,2.269-2.269l-.372-.372L19.72,22.186Z" fill="#ffd3b3"/>
        </g>
        <g id="Group_11128" data-name="Group 11128">
          <path id="Path_41991" data-name="Path 41991" d="M14.5,13.035H5.015a.527.527,0,0,0-.527.527L.976,37.62H18.537L15.024,13.562a.527.527,0,0,0-.527-.527Z" fill="#edeff1"/>
          <path id="Path_41992" data-name="Path 41992" d="M14.5,13.035H5.015a.527.527,0,0,0-.527.527L1.457,34.321h16.6L15.024,13.562a.527.527,0,0,0-.527-.527Z" fill="#ffb0aa"/>
          <path id="Path_41993" data-name="Path 41993" d="M11.9,16.937H8.976a1.463,1.463,0,0,1-1.463-1.463V13.035h5.854v2.439A1.463,1.463,0,0,1,11.9,16.937Z" fill="#edeff1"/>
        </g>
      </g>
      <g id="Group_11131" data-name="Group 11131">
        <g id="Group_11130" data-name="Group 11130">
          <path id="Path_41994" data-name="Path 41994" d="M22.6,22.707a.894.894,0,0,0,0,1.26l3.781,3.781a.891.891,0,0,0,1.26-1.26l-3.781-3.781a.894.894,0,0,0-1.26,0Z" fill="#ffd3b3"/>
          <path id="Path_41995" data-name="Path 41995" d="M36.716,22.707a.894.894,0,0,1,0,1.26l-3.781,3.781a.891.891,0,0,1-1.26-1.26l3.781-3.781a.894.894,0,0,1,1.26,0Z" fill="#ffd3b3"/>
          <path id="Path_41996" data-name="Path 41996" d="M29.659,25.276a2.927,2.927,0,1,0-2.927-2.927A2.935,2.935,0,0,0,29.659,25.276Z" fill="#ffd3b3"/>
        </g>
        <path id="Path_41997" data-name="Path 41997" d="M27.024,25.667h5.268a.293.293,0,0,1,.293.293V31.52H26.732V25.959A.293.293,0,0,1,27.024,25.667Z" fill="#80d6fb"/>
      </g>
      <g id="Group_11141" data-name="Group 11141">
        <path id="Path_41998" data-name="Path 41998" d="M23.366,42.2H40.927a6.634,6.634,0,0,0,6.634-6.634V31.268H16.732v4.293A6.634,6.634,0,0,0,23.366,42.2Z" fill="#6e83b7"/>
        <path id="Path_41999" data-name="Path 41999" d="M15.317,28.927H48.976v2.341H15.317Z" fill="#466089"/>
        <g id="Group_11132" data-name="Group 11132">
          <path id="Path_42000" data-name="Path 42000" d="M12.956,22.068h4.878v1.463H12.956Z" fill="#6e83b7"/>
          <path id="Path_42001" data-name="Path 42001" d="M40.617,28.788l-1.035-1.035L32.146,35.19,19.025,22.068H17.834v1.463h.585L31.112,36.224,23.676,43.66,24.71,44.7l7.436-7.436L39.582,44.7l1.035-1.035-7.436-7.436Z" fill="#80d6fb"/>
        </g>
        <g id="Group_11134" data-name="Group 11134">
          <path id="Path_42002" data-name="Path 42002" d="M48.976,28.927a16.39,16.39,0,0,0-16.39-16.39v16.39Z" fill="#edeff1"/>
          <g id="Group_11133" data-name="Group 11133">
            <path id="Path_42003" data-name="Path 42003" d="M40.782,14.731a16.313,16.313,0,0,0-8.2-2.194v16.39Z" fill="#edeff1"/>
            <path id="Path_42004" data-name="Path 42004" d="M44.175,17.337a16.453,16.453,0,0,0-3.393-2.607l-8.2,14.2,14.2-8.2a16.455,16.455,0,0,0-2.607-3.393Z" fill="#d3d3d3"/>
            <path id="Path_42005" data-name="Path 42005" d="M32.585,28.927h16.39a16.314,16.314,0,0,0-2.194-8.2Z" fill="#edeff1"/>
          </g>
        </g>
        <g id="Group_11135" data-name="Group 11135">
          <circle id="Ellipse_20" data-name="Ellipse 20" cx="1.805" cy="1.805" r="1.805" transform="translate(30.341 27.659)" fill="#ffe352"/>
          <circle id="Ellipse_21" data-name="Ellipse 21" cx="1.073" cy="1.073" r="1.073" transform="translate(31.073 28.39)" fill="#ffb236"/>
        </g>
        <g id="Group_11136" data-name="Group 11136">
          <path id="Path_42006" data-name="Path 42006" d="M25.262,44.08H39.031v1.463H25.262Z" fill="#80d6fb"/>
        </g>
        <g id="Group_11139" data-name="Group 11139">
          <g id="Group_11137" data-name="Group 11137">
            <circle id="Ellipse_22" data-name="Ellipse 22" cx="3.415" cy="3.415" r="3.415" transform="translate(35.616 41.317)" fill="#edeff1"/>
            <circle id="Ellipse_23" data-name="Ellipse 23" cx="1.756" cy="1.756" r="1.756" transform="translate(37.275 42.976)" fill="#d3d3d3"/>
          </g>
          <g id="Group_11138" data-name="Group 11138">
            <circle id="Ellipse_24" data-name="Ellipse 24" cx="3.415" cy="3.415" r="3.415" transform="translate(21.847 41.317)" fill="#edeff1"/>
            <circle id="Ellipse_25" data-name="Ellipse 25" cx="1.756" cy="1.756" r="1.756" transform="translate(23.506 42.976)" fill="#d3d3d3"/>
          </g>
        </g>
        <g id="Group_11140" data-name="Group 11140">
          <circle id="Ellipse_26" data-name="Ellipse 26" cx="1.268" cy="1.268" r="1.268" transform="translate(30.878 34.986)" fill="#46bee8"/>
          <circle id="Ellipse_27" data-name="Ellipse 27" cx="0.78" cy="0.78" r="0.78" transform="translate(31.366 35.473)" fill="#80d6fb"/>
        </g>
      </g>
      <g id="Group_11142" data-name="Group 11142">
        <path id="Path_42007" data-name="Path 42007" d="M13,22.559a1.609,1.609,0,0,1-2.269,0L3.919,15.751a1.6,1.6,0,1,1,2.269-2.269L13,20.289A1.609,1.609,0,0,1,13,22.559Z" fill="#edeff1"/>
        <path id="Path_42008" data-name="Path 42008" d="M10.726,22.559A1.6,1.6,0,0,0,13,20.289l-.372-.372-2.269,2.269Z" fill="#ffd3b3"/>
      </g>
    </g>
  </g>
</svg>
