<svg xmlns="http://www.w3.org/2000/svg" xmlns:xlink="http://www.w3.org/1999/xlink" width="48" height="48" viewBox="0 0 48 48">
  <defs>
    <clipPath id="clip-path">
      <rect id="Rectangle_1509" data-name="Rectangle 1509" width="48" height="48" transform="translate(726 5753)" fill="#06bed8"/>
    </clipPath>
  </defs>
  <g id="Mask_Group_331" data-name="Mask Group 331" transform="translate(-726 -5753)" clip-path="url(#clip-path)">
    <g id="customer-support_1_" data-name="customer-support (1)" transform="translate(725.508 5752.508)">
      <path id="Path_42134" data-name="Path 42134" d="M45.545,21.356a21.066,21.066,0,0,0-42.1,0A4.955,4.955,0,0,0,.492,25.881v5.558a4.956,4.956,0,0,0,4.95,4.95,3.206,3.206,0,0,0,3.2-3.2V24.132a3.2,3.2,0,0,0-2.889-3.172,18.769,18.769,0,0,1,37.468,0,3.2,3.2,0,0,0-2.885,3.171v9.053a3.2,3.2,0,0,0,2.928,3.175v2.288A4.678,4.678,0,0,1,38.6,43.32h-3.46a3.439,3.439,0,0,0-3.266-2.325H28.3a3.424,3.424,0,0,0-1.453.318,3.48,3.48,0,0,0-2.021,3.155A3.478,3.478,0,0,0,28.3,47.942h3.567a3.488,3.488,0,0,0,3.268-2.326H38.6a6.976,6.976,0,0,0,6.969-6.968v-2.7a4.954,4.954,0,0,0,2.928-4.514V25.879a4.955,4.955,0,0,0-2.947-4.523Zm-39.2,2.776v9.053a.908.908,0,0,1-.907.907,2.658,2.658,0,0,1-2.654-2.654V25.88a2.657,2.657,0,0,1,2.654-2.654.908.908,0,0,1,.907.907ZM33.021,44.714a1.183,1.183,0,0,1-1.153.933H28.3a1.177,1.177,0,0,1-.488-2.249,1.141,1.141,0,0,1,.488-.106h3.567a1.183,1.183,0,0,1,1.153,1.422ZM46.2,31.438a2.658,2.658,0,0,1-2.654,2.654.908.908,0,0,1-.907-.907V24.132a.908.908,0,0,1,.907-.907A2.658,2.658,0,0,1,46.2,25.88Z" fill="#06bed8"/>
      <path id="Path_42135" data-name="Path 42135" d="M31.926,31.834a4.87,4.87,0,0,0,4.865-4.865V17.056a4.871,4.871,0,0,0-4.865-4.865H17.058a4.87,4.87,0,0,0-4.865,4.865v9.912a4.87,4.87,0,0,0,4.865,4.865h.091V34.4a2.384,2.384,0,0,0,2.382,2.391,2.335,2.335,0,0,0,1.681-.71l4.273-4.25ZM24.2,29.871l-4.624,4.6a.058.058,0,0,1-.08.018.077.077,0,0,1-.053-.086V30.686A1.148,1.148,0,0,0,18.3,29.538H17.059a2.572,2.572,0,0,1-2.569-2.569V17.056a2.571,2.571,0,0,1,2.569-2.569H31.927A2.574,2.574,0,0,1,34.5,17.056v9.912a2.572,2.572,0,0,1-2.569,2.569H25.013a1.149,1.149,0,0,0-.81.334Z" fill="#06bed8"/>
      <path id="Path_42136" data-name="Path 42136" d="M18.915,20.5a1.694,1.694,0,1,0,1.7,1.694A1.7,1.7,0,0,0,18.915,20.5Z" fill="#06bed8"/>
      <path id="Path_42137" data-name="Path 42137" d="M24.491,20.5a1.694,1.694,0,1,0,1.7,1.694A1.7,1.7,0,0,0,24.491,20.5Z" fill="#06bed8"/>
      <path id="Path_42138" data-name="Path 42138" d="M30.068,20.5a1.694,1.694,0,1,0,1.7,1.694A1.7,1.7,0,0,0,30.068,20.5Z" fill="#06bed8"/>
    </g>
  </g>
</svg>
