<svg xmlns="http://www.w3.org/2000/svg" xmlns:xlink="http://www.w3.org/1999/xlink" width="20" height="20" viewBox="0 0 20 20">
  <defs>
    <clipPath id="clip-path">
      <rect id="Rectangle_1526" data-name="Rectangle 1526" width="20" height="20" transform="translate(421.336 5984.336)" fill="#fff" stroke="#707070" stroke-width="1"/>
    </clipPath>
  </defs>
  <g id="Mask_Group_322" data-name="Mask Group 322" transform="translate(-421.336 -5984.336)" clip-path="url(#clip-path)">
    <g id="check_3_" data-name="check (3)" transform="translate(421.953 5984.953)">
      <path id="Path_42086" data-name="Path 42086" d="M9.157,13.251h0a.7.7,0,0,1-.536-.243L4.944,9.014A.724.724,0,1,1,6.015,8.04l3.166,3.434,8.766-8.742a.706.706,0,0,1,1.023,0,.727.727,0,0,1,0,1.023l-9.3,9.278A.663.663,0,0,1,9.157,13.251Z" transform="translate(-0.147 -0.077)" fill="#06bed8"/>
      <path id="Path_42087" data-name="Path 42087" d="M9.692,19.384A9.692,9.692,0,1,1,9.692,0a.717.717,0,0,1,.731.731.717.717,0,0,1-.731.731,8.231,8.231,0,1,0,8.231,8.231.731.731,0,0,1,1.461,0A9.717,9.717,0,0,1,9.692,19.384Z" fill="#171717"/>
    </g>
  </g>
</svg>
