<svg xmlns="http://www.w3.org/2000/svg" xmlns:xlink="http://www.w3.org/1999/xlink" width="98.156" height="98.156" viewBox="0 0 98.156 98.156">
  <defs>
    <filter id="Ellipse_383" x="0" y="0" width="98.156" height="98.156" filterUnits="userSpaceOnUse">
      <feOffset dy="3" input="SourceAlpha"/>
      <feGaussianBlur stdDeviation="3" result="blur"/>
      <feFlood flood-opacity="0.161"/>
      <feComposite operator="in" in2="blur"/>
      <feComposite in="SourceGraphic"/>
    </filter>
  </defs>
  <g id="OBJECTS" transform="translate(0.25 -2.26)">
    <g transform="matrix(1, 0, 0, 1, -0.25, 2.26)" filter="url(#Ellipse_383)">
      <circle id="Ellipse_383-2" data-name="Ellipse 383" cx="40.078" cy="40.078" r="40.078" transform="translate(9 6)" fill="#fff"/>
    </g>
    <path id="Path_53817" data-name="Path 53817" d="M50.983,97.011,28.94,78.522l7.975-9.507L50.255,80.2,83.1,47.43l8.766,8.788Z" transform="translate(-11.119 -21.571)" fill="#06bed8" opacity="0.15"/>
    <path id="Path_53818" data-name="Path 53818" d="M95.127,144.565V128.417a6.807,6.807,0,0,0-6.811-6.807H80.551a6.807,6.807,0,0,0-6.811,6.807v16.148" transform="translate(-35.79 -62.421)" fill="none" stroke="#06bed8" stroke-linecap="round" stroke-linejoin="round" stroke-width="3"/>
    <path id="Path_53819" data-name="Path 53819" d="M96.51,110.274v-5.935a3.195,3.195,0,0,0-3.195-3.2H90.575a3.195,3.195,0,0,0-3.195,3.2v5.935" transform="translate(-43.301 -51.149)" fill="none" stroke="#06bed8" stroke-linecap="round" stroke-linejoin="round" stroke-width="3"/>
    <line id="Line_290" data-name="Line 290" y1="26.388" transform="translate(48.464 23.604)" fill="none" stroke="#06bed8" stroke-linecap="round" stroke-linejoin="round" stroke-width="3"/>
    <line id="Line_291" data-name="Line 291" x2="5.266" transform="translate(37.95 68.705)" fill="none" stroke="#06bed8" stroke-linecap="round" stroke-linejoin="round" stroke-width="3"/>
    <line id="Line_292" data-name="Line 292" x2="7.512" transform="translate(37.95 73.517)" fill="none" stroke="#06bed8" stroke-linecap="round" stroke-linejoin="round" stroke-width="3"/>
    <line id="Line_293" data-name="Line 293" x2="5.266" transform="translate(37.95 78.329)" fill="none" stroke="#06bed8" stroke-linecap="round" stroke-linejoin="round" stroke-width="3"/>
    <text id="I" transform="translate(16.654 45.47) rotate(-82.519)" fill="#06bed8" font-size="4" font-family="Montserrat" font-weight="700"><tspan x="0" y="0">I</tspan></text>
    <text id="G" transform="matrix(0.38, -0.925, 0.925, 0.38, 18.783, 39.266)" fill="#06bed8" font-size="5" font-family="Montserrat" font-weight="700"><tspan x="0" y="0">G</tspan></text>
    <text id="O" transform="translate(22.349 33.331) rotate(-54.62)" fill="#06bed8" font-size="6" font-family="Montserrat" font-weight="700"><tspan x="0" y="0">O</tspan></text>
    <text id="T" transform="matrix(0.732, -0.681, 0.682, 0.732, 26.02, 26.724)" fill="#06bed8" font-size="5" font-family="Montserrat" font-weight="700"><tspan x="0" y="0">T</tspan></text>
    <text id="V" transform="matrix(0.901, -0.433, 0.433, 0.901, 32.804, 21.118)" fill="#06bed8" font-size="5" font-family="Montserrat" font-weight="700"><tspan x="0" y="0">V</tspan></text>
    <text id="A" transform="matrix(0.974, -0.228, 0.228, 0.974, 38.728, 18.33)" fill="#06bed8" font-size="5" font-family="Montserrat" font-weight="700"><tspan x="0" y="0">A</tspan></text>
    <text id="C" transform="matrix(1, -0.017, 0.017, 1, 45.468, 16.882)" fill="#06bed8" font-size="5" font-family="Montserrat" font-weight="700"><tspan x="0" y="0">C</tspan></text>
    <text id="C-2" data-name="C" transform="matrix(0.978, 0.21, -0.21, 0.978, 52.137, 16.891)" fill="#06bed8" font-size="5" font-family="Montserrat" font-weight="700"><tspan x="0" y="0">C</tspan></text>
    <text id="I-2" data-name="I" transform="translate(59.027 17.579) rotate(22.348)" fill="#06bed8" font-size="4" font-family="Montserrat" font-weight="700"><tspan x="0" y="0">I</tspan></text>
    <text id="N" transform="matrix(0.851, 0.525, -0.525, 0.851, 61.33, 20.53)" fill="#06bed8" font-size="6" font-family="Montserrat" font-weight="700"><tspan x="0" y="0">N</tspan></text>
    <text id="A-2" data-name="A" transform="matrix(0.709, 0.705, -0.705, 0.709, 68.062, 23.66)" fill="#06bed8" font-size="5" font-family="Montserrat" font-weight="700"><tspan x="0" y="0">A</tspan></text>
    <text id="T-2" data-name="T" transform="matrix(0.563, 0.826, -0.826, 0.563, 72.727, 28.453)" fill="#06bed8" font-size="5" font-family="Montserrat" font-weight="700"><tspan x="0" y="0">T</tspan></text>
    <text id="E" transform="matrix(0.401, 0.916, -0.916, 0.401, 75.022, 33.662)" fill="#06bed8" font-size="6" font-family="Montserrat" font-weight="700"><tspan x="0" y="0">E</tspan></text>
    <text id="D" transform="matrix(0.19, 0.982, -0.982, 0.19, 77.444, 39.215)" fill="#06bed8" font-size="6" font-family="Montserrat" font-weight="700"><tspan x="0" y="0">D</tspan></text>
    <path id="Path_53820" data-name="Path 53820" d="M59.248,82.219A2.179,2.179,0,1,0,57.069,84.4a2.179,2.179,0,0,0,2.179-2.179Z" transform="translate(-25.409 -39.529)" fill="none" stroke="#06bed8" stroke-linecap="round" stroke-linejoin="round" stroke-width="2"/>
    <path id="Path_53821" data-name="Path 53821" d="M144.547,123.919a2.449,2.449,0,1,0-2.449,2.449A2.449,2.449,0,0,0,144.547,123.919Z" transform="translate(-72.086 -62.344)" fill="none" stroke="#06bed8" stroke-linecap="round" stroke-linejoin="round" stroke-width="2"/>
    <circle id="Ellipse_384" data-name="Ellipse 384" cx="1.712" cy="1.712" r="1.712" transform="translate(53.946 25.707)" fill="none" stroke="#06bed8" stroke-linecap="round" stroke-linejoin="round" stroke-width="2"/>
    <line id="Line_294" data-name="Line 294" y2="3.222" transform="translate(66.441 42.69)" fill="none" stroke="#06bed8" stroke-linecap="round" stroke-linejoin="round" stroke-width="2"/>
    <line id="Line_295" data-name="Line 295" x2="3.222" transform="translate(64.832 44.299)" fill="none" stroke="#06bed8" stroke-linecap="round" stroke-linejoin="round" stroke-width="2"/>
    <line id="Line_296" data-name="Line 296" y2="3.222" transform="translate(39.797 30.514)" fill="none" stroke="#06bed8" stroke-linecap="round" stroke-linejoin="round" stroke-width="2"/>
    <line id="Line_297" data-name="Line 297" x2="3.222" transform="translate(38.184 32.123)" fill="none" stroke="#06bed8" stroke-linecap="round" stroke-linejoin="round" stroke-width="2"/>
    <line id="Line_298" data-name="Line 298" y2="3.222" transform="translate(24.049 55.967)" fill="none" stroke="#0075bb" stroke-linecap="round" stroke-linejoin="round" stroke-width="2"/>
    <line id="Line_299" data-name="Line 299" x2="3.222" transform="translate(22.436 57.576)" fill="none" stroke="#0075bb" stroke-linecap="round" stroke-linejoin="round" stroke-width="2"/>
  </g>
</svg>
