<svg xmlns="http://www.w3.org/2000/svg" xmlns:xlink="http://www.w3.org/1999/xlink" width="137.935" height="53.275" viewBox="0 0 137.935 53.275">
  <defs>
    <linearGradient id="linear-gradient" x1="-0.303" y1="2.227" x2="-0.302" y2="2.225" gradientUnits="objectBoundingBox">
      <stop offset="0" stop-color="#ff177b"/>
      <stop offset="1" stop-color="#ffec73"/>
    </linearGradient>
    <filter id="background" x="0" y="0" width="137.935" height="53.275" filterUnits="userSpaceOnUse">
      <feOffset dy="3" input="SourceAlpha"/>
      <feGaussianBlur stdDeviation="3" result="blur"/>
      <feFlood flood-opacity="0.161"/>
      <feComposite operator="in" in2="blur"/>
      <feComposite in="SourceGraphic"/>
    </filter>
    <clipPath id="clip-path">
      <path id="orange" d="M8.495,4.286S1.306.3.883.067.036-.025.036.462V17.641c0,.367.3.522.67.325s7.789-4.318,7.789-4.318,1.009-.557,1.51-.84c.811-.452,2.434-1.348,2.434-1.348l3.8-2.1c.444-.247.4-.586.028-.776s-3.817-2.116-3.817-2.116L8.495,4.286Z" transform="translate(-0.036 0.042)" fill="url(#linear-gradient)"/>
    </clipPath>
    <linearGradient id="linear-gradient-2" x1="0.915" y1="17.626" x2="-0.383" y2="16.957" gradientUnits="objectBoundingBox">
      <stop offset="0" stop-color="#00a0ff"/>
      <stop offset="0.007" stop-color="#00a2ff"/>
      <stop offset="0.26" stop-color="#00beff"/>
      <stop offset="0.512" stop-color="#00d2ff"/>
      <stop offset="0.76" stop-color="#00dfff"/>
      <stop offset="1" stop-color="#00e3ff"/>
    </linearGradient>
    <linearGradient id="linear-gradient-3" x1="1.076" y1="49.373" x2="-1.305" y2="49.373" gradientUnits="objectBoundingBox">
      <stop offset="0" stop-color="#ffe000"/>
      <stop offset="0.409" stop-color="#ffbd00"/>
      <stop offset="0.775" stop-color="#ffa600"/>
      <stop offset="1" stop-color="#ff9c00"/>
    </linearGradient>
    <linearGradient id="linear-gradient-4" x1="0.862" y1="32.329" x2="-0.501" y2="30.56" gradientUnits="objectBoundingBox">
      <stop offset="0" stop-color="#ff3743"/>
      <stop offset="1" stop-color="#e30864"/>
    </linearGradient>
    <linearGradient id="linear-gradient-5" x1="-0.188" y1="35.049" x2="0.421" y2="34.259" gradientUnits="objectBoundingBox">
      <stop offset="0" stop-color="#00a06f"/>
      <stop offset="0.068" stop-color="#00a86e"/>
      <stop offset="0.476" stop-color="#00cf6e"/>
      <stop offset="0.801" stop-color="#00e76d"/>
      <stop offset="1" stop-color="#00ef6d"/>
    </linearGradient>
  </defs>
  <g id="Page-1" transform="translate(9 6)">
    <g id="Artboard-1" transform="translate(0)">
      <g id="Play-Store">
        <g transform="matrix(1, 0, 0, 1, -9, -6)" filter="url(#background)">
          <path id="background-2" data-name="background" d="M4.872,0h110.19c2.688,0,4.872,1.9,4.872,4.233V31.042c0,2.335-2.184,4.233-4.872,4.233H4.872C2.184,35.275,0,33.377,0,31.042V4.233C0,1.9,2.184,0,4.872,0Z" transform="translate(9 6)" fill="#171717"/>
        </g>
        <g id="icon" transform="translate(12.099 12.603)">
          <g id="Mask_Group_306" data-name="Mask Group 306" transform="translate(0.021 0)" clip-path="url(#clip-path)">
            <g id="google-play" transform="translate(0.138 0)">
              <path id="Path_41974" data-name="Path 41974" d="M1.9.44a1.409,1.409,0,0,0-.326.988V16.987a1.408,1.408,0,0,0,.326.988l.052.051L10.667,9.31V9.1L1.952.389Z" transform="translate(-1.574 -0.16)" fill="url(#linear-gradient-2)"/>
              <path id="Path_41975" data-name="Path 41975" d="M19.946,16.289l-2.905-2.906v-.206l2.906-2.906.065.037,3.442,1.956a1.068,1.068,0,0,1,0,2.031l-3.442,1.956Z" transform="translate(-7.948 -4.233)" fill="url(#linear-gradient-3)"/>
              <path id="Path_41976" data-name="Path 41976" d="M13.866,18.36,10.9,15.389,2.128,24.156A1.144,1.144,0,0,0,3.59,24.2L13.866,18.36" transform="translate(-1.802 -6.341)" fill="url(#linear-gradient-4)"/>
              <path id="Path_41977" data-name="Path 41977" d="M13.866,6.076,3.59.236A1.144,1.144,0,0,0,2.128.28L10.9,9.047Z" transform="translate(-1.802 0)" fill="url(#linear-gradient-5)"/>
            </g>
          </g>
          <g id="blue" transform="translate(0 0.033)">
            <path id="Fill-1" d="M12.417,6.5,8.466,4.309C8.452,4.345,1.263.352.847.147.423-.121,0,.027,0,.5V17.714c0,.381.3.536.635.353.4-.226,7.817-4.339,7.831-4.374l3.951-2.187c-.021.028,3.323-1.827,3.739-2.046.48-.275.43-.614.071-.776-.388-.226-3.831-2.152-3.81-2.187" transform="translate(0 -0.014)" fill="none"/>
          </g>
        </g>
        <g id="Google-play-2" data-name="Google-play" transform="translate(32.347 14.181)">
          <path id="Fill-1_1_" d="M75.025,13.154l-.783.741c-.183.1-.36.219-.536.3a3.781,3.781,0,0,1-1.587.31,3.478,3.478,0,0,1-2.173-.642A4.262,4.262,0,0,1,68.28,10.4a3.715,3.715,0,0,1,3.746-3.8,3.164,3.164,0,0,1,1.679.459,2.713,2.713,0,0,1,1.143,1.63L71.01,10.247l-1.256.1c.409,2.088,1.813,3.3,3.365,3.3A4.024,4.024,0,0,0,75,13.133s.106-.056.028.021ZM72.682,8.963c.31-.113.466-.212.466-.444a1.618,1.618,0,0,0-1.6-1.425,2.022,2.022,0,0,0-1.855,2.3c0,.282.035.579.049.875Z" transform="translate(-28.137 -2.72)" fill="#fff"/>
          <path id="Fill-2" d="M64.142,10.343c0,.635.113.734.649.783.282.035.557.049.832.078l-.6.36H62.152c.374-.494.444-.543.444-.868v-.367L62.59.593H61.32L62.541,0h2.328a1.124,1.124,0,0,0-.72,1.044l-.007,9.3" transform="translate(-25.269)" fill="#fff"/>
          <path id="Fill-3" d="M54.3,7.553a2.682,2.682,0,0,1-.212,4.536,1.159,1.159,0,0,0-.459.8.911.911,0,0,0,.423.705l.586.459A2.859,2.859,0,0,1,56,16.35c0,1.538-1.482,3.1-4.275,3.1-2.356,0-3.492-1.129-3.492-2.342a2.343,2.343,0,0,1,1.256-2,6.971,6.971,0,0,1,3.1-.755,1.739,1.739,0,0,1-.487-1.115,1.562,1.562,0,0,1,.162-.642c-.176.014-.36.035-.522.035a2.58,2.58,0,0,1-2.7-2.575,2.933,2.933,0,0,1,1.044-2.194A4.407,4.407,0,0,1,53,6.96h3.351L55.3,7.553H54.3Zm-1.143,7.26a2.055,2.055,0,0,0-.374-.021,6.482,6.482,0,0,0-1.721.268,1.87,1.87,0,0,0-1.411,1.721c0,1.185,1.129,2.039,2.885,2.039,1.573,0,2.406-.769,2.406-1.8,0-.861-.543-1.312-1.785-2.208Zm.459-3.161a1.654,1.654,0,0,0,.409-1.192c0-1.178-.691-3.005-2.039-3.005A1.512,1.512,0,0,0,50.845,8,1.883,1.883,0,0,0,50.493,9.2c0,1.094.635,2.907,2.025,2.907A1.628,1.628,0,0,0,53.611,11.652Z" transform="translate(-19.874 -2.868)" fill="#fff"/>
          <path id="Fill-4_1_" d="M38.532,14.5a3.867,3.867,0,0,1-3.972-3.894A4.06,4.06,0,0,1,38.779,6.6a3.837,3.837,0,0,1,3.894,3.894A4,4,0,0,1,38.532,14.5Zm2.025-1.333a3,3,0,0,0,.494-1.834c0-1.46-.684-4.24-2.716-4.24a2.258,2.258,0,0,0-1.474.564,2.529,2.529,0,0,0-.755,2.018c0,1.637.8,4.332,2.78,4.332A2.069,2.069,0,0,0,40.557,13.168Z" transform="translate(-14.242 -2.72)" fill="#fff"/>
          <path id="Fill-5" d="M23.772,14.5A3.867,3.867,0,0,1,19.8,10.607,4.06,4.06,0,0,1,24.019,6.6a3.837,3.837,0,0,1,3.894,3.894A4,4,0,0,1,23.772,14.5ZM25.8,13.168a3,3,0,0,0,.494-1.834c0-1.46-.691-4.24-2.716-4.24a2.244,2.244,0,0,0-1.474.564,2.505,2.505,0,0,0-.755,2.018c0,1.637.8,4.332,2.78,4.332A2.069,2.069,0,0,0,25.8,13.168Z" transform="translate(-8.159 -2.72)" fill="#fff"/>
          <path id="Fill-6" d="M10.568,11.79,8.374,12.3a15.936,15.936,0,0,1-2.533.268A5.474,5.474,0,0,1,0,6.971,5.815,5.815,0,0,1,6.194,1.2a8.709,8.709,0,0,1,2.349.325,5.959,5.959,0,0,1,2.025.959L9.291,3.7l-.536.12.381-.614A4.38,4.38,0,0,0,5.856,1.757a4.249,4.249,0,0,0-4.247,4.55,5.437,5.437,0,0,0,5.425,5.63,4.586,4.586,0,0,0,1.947-.381V9.066l-2.314.127L7.895,8.53h3.252l-.4.388a.376.376,0,0,0-.155.247c-.014.141-.028.586-.028.748V11.79" transform="translate(0 -0.495)" fill="#fff"/>
          <path id="Fill-7_1_" d="M87.225,13.225v4.169H86.4V6.79h.825V8a3.272,3.272,0,0,1,2.66-1.4c2.046,0,3.429,1.559,3.429,4.021s-1.376,4.035-3.429,4.035A3.275,3.275,0,0,1,87.225,13.225Zm5.242-2.54c0-1.877-.967-3.309-2.688-3.309a3.287,3.287,0,0,0-2.533,1.587v3.429a3.316,3.316,0,0,0,2.533,1.616C91.5,14.008,92.467,12.561,92.467,10.685Z" transform="translate(-35.604 -2.72)" fill="#fff"/>
          <path id="Fill-8" d="M100.08,1.92h.847V12.573h-.847Z" transform="translate(-41.241 -0.791)" fill="#fff"/>
          <path id="Fill-9" d="M116.611,16.759a1.981,1.981,0,0,0,.67.127c.508,0,.854-.2,1.171-.938l.6-1.369L115.8,6.84h.924l2.787,6.709,2.766-6.709h.931L119.243,16.2a2.027,2.027,0,0,1-1.947,1.432,3.241,3.241,0,0,1-.825-.113l.141-.762" transform="translate(-47.719 -2.819)" fill="#fff"/>
          <path id="Fill-10" d="M109.277,14.495q-.085-.4-.127-.7a4.209,4.209,0,0,1-.042-.6,3.262,3.262,0,0,1-1.206,1.044,3.327,3.327,0,0,1-1.679.409,2.677,2.677,0,0,1-1.884-.607,2.111,2.111,0,0,1-.67-1.644,1.952,1.952,0,0,1,.974-1.686,4.486,4.486,0,0,1,2.526-.649H109.1V9.1a1.6,1.6,0,0,0-.564-1.3,2.382,2.382,0,0,0-1.587-.473,2.532,2.532,0,0,0-1.524.43,1.316,1.316,0,0,0-.579,1.079H104l-.014-.042a1.788,1.788,0,0,1,.8-1.538A3.459,3.459,0,0,1,107,6.6a3.422,3.422,0,0,1,2.187.656,2.237,2.237,0,0,1,.825,1.87v3.81a5.9,5.9,0,0,0,.049.8,5.409,5.409,0,0,0,.162.762h-.945Zm-2.949-.557a3.121,3.121,0,0,0,1.728-.473,2.369,2.369,0,0,0,1.044-1.213V10.762h-1.947a3.148,3.148,0,0,0-1.841.5,1.436,1.436,0,0,0-.727,1.206,1.335,1.335,0,0,0,.466,1.065A1.91,1.91,0,0,0,106.328,13.937Z" transform="translate(-42.72 -2.72)" fill="#fff"/>
        </g>
        <g id="Get-it-on" transform="translate(32.065 5.637)">
          <path id="Fill-1_2_" d="M0,2.605A2.529,2.529,0,0,1,2.723.108a2.5,2.5,0,0,1,2.088,1l-.741.4A1.722,1.722,0,0,0,2.723.863,1.715,1.715,0,0,0,.931,2.605,1.723,1.723,0,0,0,2.723,4.348a1.925,1.925,0,0,0,1.228-.437V3.17H2.4V2.422H4.854v1.8A2.894,2.894,0,0,1,2.723,5.1,2.525,2.525,0,0,1,0,2.605" transform="translate(0 -0.108)" fill="#fff"/>
          <path id="Fill-2_1_" d="M10.26,5.094V.24h3.605V.988H11.184V2.237h2.624v.755H11.184V4.346h2.681v.748H10.26" transform="translate(-4.228 -0.162)" fill="#fff"/>
          <path id="Fill-3_1_" d="M19.458,5.094V.988H17.892V.24h4.043V.988H20.368V5.094h-.91" transform="translate(-7.373 -0.162)" fill="#fff"/>
          <path id="Fill-4_2_" d="M30.276.24h.882V5.094h-.882Z" transform="translate(-12.476 -0.162)" fill="#fff"/>
          <path id="Fill-5_1_" d="M34.974,5.094V.988H33.408V.24h4.043V.988H35.884V5.094h-.91" transform="translate(-13.767 -0.162)" fill="#fff"/>
          <path id="Fill-6_1_" d="M45.42,2.617a2.691,2.691,0,1,1,2.688,2.5A2.5,2.5,0,0,1,45.42,2.617Zm4.409-.042a1.728,1.728,0,1,0-3.457,0,1.728,1.728,0,1,0,3.457,0Z" transform="translate(-18.717 -0.113)" fill="#fff"/>
          <path id="Fill-7_2_" d="M59.9,5.094,57.2,1.623V5.094h-.91V.24h.931l2.646,3.365V.24h.91V5.094H59.9" transform="translate(-23.197 -0.162)" fill="#fff"/>
        </g>
      </g>
    </g>
  </g>
</svg>
